<svg xmlns="http://www.w3.org/2000/svg" width="18" height="19" viewBox="0 0 18 19" fill="none">
<path d="M8.41067 3.01819C8.08524 3.34362 8.08524 3.87126 8.41067 4.1967C8.73611 4.52213 9.26375 4.52213 9.58918 4.1967L10.6204 3.1655C11.9221 1.86375 14.0327 1.86375 15.3344 3.1655C16.6362 4.46725 16.6362 6.5778 15.3344 7.87954L12.6828 10.5312C11.381 11.8329 9.27048 11.8329 7.96873 10.5312C7.64329 10.2058 7.11566 10.2058 6.79022 10.5312C6.46478 10.8566 6.46478 11.3843 6.79022 11.7097C8.74284 13.6623 11.9087 13.6623 13.8613 11.7097L16.5129 9.05805C18.4656 7.10543 18.4656 3.93961 16.5129 1.98699C14.5603 0.0343666 11.3945 0.0343666 9.44187 1.98699L8.41067 3.01819Z" fill="#3244E6"/>
<path d="M1.48693 9.94193C-0.465694 11.8946 -0.465694 15.0604 1.48693 17.013C3.43955 18.9656 6.60537 18.9656 8.55799 17.013L9.58919 15.9818C9.91463 15.6564 9.91463 15.1287 9.58919 14.8033C9.26375 14.4779 8.73612 14.4779 8.41068 14.8033L7.37948 15.8345C6.07774 17.1362 3.96719 17.1362 2.66544 15.8345C1.36369 14.5327 1.36369 12.4222 2.66544 11.1204L5.31709 8.46879C6.61884 7.16704 8.72939 7.16704 10.0311 8.46879C10.3566 8.79423 10.8842 8.79423 11.2096 8.46879C11.5351 8.14335 11.5351 7.61572 11.2096 7.29028C9.25702 5.33766 6.0912 5.33766 4.13858 7.29028L1.48693 9.94193Z" fill="#3244E6"/>
</svg>