<svg width="19" height="19" viewBox="0 0 19 19" fill="none" xmlns="http://www.w3.org/2000/svg">
<g id="octicon:search-16">
<path id="Vector" d="M12.6825 13.9413C11.2508 15.0526 9.44946 15.5765 7.64509 15.4064C5.84072 15.2363 4.16898 14.385 2.97016 13.0258C1.77134 11.6666 1.13555 9.90157 1.19221 8.09009C1.24887 6.27861 1.99372 4.5568 3.27515 3.27515C4.5568 1.99372 6.27861 1.24887 8.09009 1.19221C9.90157 1.13555 11.6666 1.77134 13.0258 2.97016C14.385 4.16898 15.2363 5.84072 15.4064 7.64509C15.5765 9.44946 15.0526 11.2508 13.9413 12.6825L17.5513 16.2925C17.6685 16.4014 17.7542 16.5399 17.7994 16.6933C17.8445 16.8468 17.8474 17.0096 17.8078 17.1646C17.7681 17.3196 17.6874 17.4611 17.5742 17.574C17.4609 17.687 17.3193 17.7674 17.1641 17.8066C17.0093 17.8463 16.8467 17.8435 16.6933 17.7986C16.5399 17.7536 16.4015 17.6682 16.2925 17.5513L12.6825 13.9413ZM13.6563 8.31252C13.6668 7.6043 13.5365 6.90105 13.2727 6.24368C13.009 5.58631 12.6172 4.98794 12.1201 4.48338C11.623 3.97882 11.0306 3.57814 10.3772 3.30464C9.72383 3.03115 9.0226 2.89031 8.3143 2.89031C7.60601 2.89031 6.90478 3.03115 6.25141 3.30464C5.59804 3.57814 5.00558 3.97882 4.50849 4.48338C4.01139 4.98794 3.61959 5.58631 3.35587 6.24368C3.09215 6.90105 2.96178 7.6043 2.97233 8.31252C2.99325 9.71551 3.56527 11.0539 4.56481 12.0387C5.56435 13.0234 6.91116 13.5754 8.3143 13.5754C9.71744 13.5754 11.0643 13.0234 12.0638 12.0387C13.0633 11.0539 13.6354 9.71551 13.6563 8.31252Z" fill="white"/>
</g>
</svg>
