<svg xmlns="http://www.w3.org/2000/svg" width="20" height="20" viewBox="0 0 20 20" fill="none">
<path d="M8.10625 13.5575C8.29707 12.8488 8.39248 12.4945 8.54183 12.4083C8.67066 12.334 8.82932 12.334 8.95815 12.4083C9.1075 12.4945 9.20291 12.8488 9.39373 13.5575L9.62247 14.4071C9.65883 14.5421 9.67701 14.6097 9.7129 14.6649C9.74465 14.7137 9.78629 14.7553 9.83513 14.7871C9.89033 14.823 9.95785 14.8411 10.0929 14.8775L10.9424 15.1062C11.6511 15.2971 12.0055 15.3925 12.0916 15.5418C12.1659 15.6707 12.1659 15.8293 12.0916 15.9581C12.0055 16.1075 11.6511 16.2029 10.9424 16.3937L10.0929 16.6225C9.95785 16.6588 9.89033 16.677 9.83513 16.7129C9.78629 16.7446 9.74465 16.7863 9.7129 16.8351C9.67701 16.8903 9.65883 16.9578 9.62247 17.0929L9.39373 17.9424C9.20291 18.6511 9.1075 19.0055 8.95815 19.0916C8.82932 19.1659 8.67066 19.1659 8.54183 19.0916C8.39248 19.0055 8.29707 18.6511 8.10625 17.9424L7.87751 17.0929C7.84115 16.9578 7.82297 16.8903 7.78709 16.8351C7.75533 16.7863 7.71369 16.7446 7.66485 16.7129C7.60965 16.677 7.54213 16.6588 7.40709 16.6225L6.55754 16.3937C5.84883 16.2029 5.49448 16.1075 5.40834 15.9581C5.33405 15.8293 5.33405 15.6707 5.40834 15.5418C5.49448 15.3925 5.84883 15.2971 6.55754 15.1062L7.40709 14.8775C7.54213 14.8411 7.60965 14.823 7.66485 14.7871C7.71369 14.7553 7.75533 14.7137 7.78709 14.6649C7.82297 14.6097 7.84115 14.5421 7.87751 14.4071L8.10625 13.5575Z" fill="#3244E6"/>
<path d="M15.1896 6.68254C15.3804 5.97383 15.4758 5.61948 15.6252 5.53334C15.754 5.45905 15.9127 5.45905 16.0415 5.53334C16.1908 5.61948 16.2862 5.97383 16.4771 6.68254L16.8384 8.02451C16.8747 8.15955 16.8929 8.22707 16.9288 8.28227C16.9606 8.33111 17.0022 8.37275 17.051 8.4045C17.1062 8.44039 17.1738 8.45857 17.3088 8.49493L18.6508 8.85625C19.3595 9.04707 19.7138 9.14248 19.8 9.29183C19.8743 9.42066 19.8743 9.57932 19.8 9.70815C19.7138 9.8575 19.3595 9.95291 18.6508 10.1437L17.3088 10.5051C17.1738 10.5414 17.1062 10.5596 17.051 10.5955C17.0022 10.6272 16.9606 10.6689 16.9288 10.7177C16.8929 10.7729 16.8747 10.8404 16.8384 10.9755L16.4771 12.3174C16.2862 13.0261 16.1908 13.3805 16.0415 13.4666C15.9127 13.5409 15.754 13.5409 15.6252 13.4666C15.4758 13.3805 15.3804 13.0261 15.1896 12.3174L14.8283 10.9755C14.7919 10.8404 14.7737 10.7729 14.7378 10.7177C14.7061 10.6689 14.6644 10.6272 14.6156 10.5955C14.5604 10.5596 14.4929 10.5414 14.3578 10.5051L13.0159 10.1437C12.3072 9.95291 11.9528 9.8575 11.8667 9.70815C11.7924 9.57932 11.7924 9.42066 11.8667 9.29183C11.9528 9.14248 12.3072 9.04707 13.0159 8.85625L14.3578 8.49493C14.4929 8.45857 14.5604 8.44039 14.6156 8.4045C14.6644 8.37275 14.7061 8.33111 14.7378 8.28227C14.7737 8.22707 14.7919 8.15955 14.8283 8.02451L15.1896 6.68254Z" fill="#3244E6"/>
<path d="M4.77292 1.47421C4.96373 0.765497 5.05914 0.411142 5.2085 0.325009C5.33733 0.250713 5.49599 0.250713 5.62481 0.325009C5.77417 0.411142 5.86958 0.765497 6.0604 1.47421L6.5543 3.30859C6.59066 3.44363 6.60884 3.51115 6.64473 3.56635C6.67648 3.61519 6.71812 3.65683 6.76696 3.68859C6.82216 3.72447 6.88968 3.74265 7.02472 3.77901L8.85911 4.27292C9.56782 4.46373 9.92217 4.55914 10.0083 4.7085C10.0826 4.83733 10.0826 4.99599 10.0083 5.12481C9.92217 5.27417 9.56782 5.36958 8.85911 5.5604L7.02472 6.0543C6.88968 6.09066 6.82216 6.10884 6.76696 6.14473C6.71812 6.17648 6.67648 6.21812 6.64473 6.26696C6.60884 6.32216 6.59066 6.38968 6.5543 6.52472L6.0604 8.35911C5.86958 9.06782 5.77417 9.42217 5.62481 9.5083C5.49599 9.5826 5.33733 9.5826 5.2085 9.5083C5.05914 9.42217 4.96373 9.06782 4.77292 8.35911L4.27901 6.52472C4.24265 6.38968 4.22447 6.32216 4.18859 6.26696C4.15683 6.21812 4.11519 6.17648 4.06635 6.14473C4.01115 6.10884 3.94363 6.09066 3.80859 6.0543L1.97421 5.5604C1.2655 5.36958 0.911142 5.27417 0.825009 5.12481C0.750713 4.99599 0.750713 4.83733 0.825009 4.7085C0.911142 4.55914 1.2655 4.46373 1.97421 4.27292L3.80859 3.77901C3.94363 3.74265 4.01115 3.72447 4.06635 3.68859C4.11519 3.65683 4.15683 3.61519 4.18859 3.56635C4.22447 3.51115 4.24265 3.44363 4.27901 3.30859L4.77292 1.47421Z" fill="#3244E6"/>
</svg>