<svg xmlns="http://www.w3.org/2000/svg" width="18" height="17" viewBox="0 0 18 17" fill="none">
<path fill-rule="evenodd" clip-rule="evenodd" d="M9.00009 2.16665C5.82842 2.16665 3.17225 4.27152 2.49861 7.09183C2.39676 7.51822 1.95036 7.78544 1.50153 7.68869C1.0527 7.59193 0.771415 7.16785 0.873259 6.74146C1.71538 3.21581 5.03313 0.583313 9.00009 0.583313C11.7271 0.583313 14.1471 1.82777 15.6667 3.74942V1.5729C15.6667 1.13567 16.0398 0.78123 16.5001 0.78123C16.9603 0.78123 17.3334 1.13567 17.3334 1.5729V5.53123C17.3334 5.96845 16.9603 6.3229 16.5001 6.3229H12.3334C11.8732 6.3229 11.5001 5.96845 11.5001 5.53123C11.5001 5.094 11.8732 4.73956 12.3334 4.73956H14.3651C13.1502 3.17784 11.1989 2.16665 9.00009 2.16665ZM16.4986 9.31127C16.9475 9.40802 17.2288 9.83211 17.1269 10.2585C16.2848 13.7842 12.967 16.4166 9.00009 16.4166C6.27308 16.4166 3.85309 15.1722 2.33341 13.2505V15.4271C2.33341 15.8643 1.96032 16.2187 1.50008 16.2187C1.03984 16.2187 0.666748 15.8643 0.666748 15.4271V11.4687C0.666748 11.0315 1.03984 10.6771 1.50008 10.6771H5.66675C6.12699 10.6771 6.50008 11.0315 6.50008 11.4687C6.50008 11.906 6.12699 12.2604 5.66675 12.2604H3.63505C4.84998 13.8221 6.80127 14.8333 9.00009 14.8333C12.1718 14.8333 14.8279 12.7284 15.5016 9.90813C15.6034 9.48174 16.0498 9.21452 16.4986 9.31127Z" fill="#3244E6"/>
</svg>