<svg xmlns="http://www.w3.org/2000/svg" width="18" height="15" viewBox="0 0 18 15" fill="none">
  <path fill-rule="evenodd" clip-rule="evenodd" d="M5.04892 3.43039e-07H12.9511H12.9511C13.6219 -9.96014e-06 14.1755 -1.84619e-05 14.6265 0.0368291C15.0949 0.0751001 15.5255 0.157237 15.93 0.363313C16.5572 0.682891 17.0671 1.19283 17.3867 1.82003C17.5928 2.22448 17.6749 2.65506 17.7132 3.12348C17.75 3.57447 17.75 4.1281 17.75 4.7989V10.2011C17.75 10.8719 17.75 11.4255 17.7132 11.8765C17.6749 12.3449 17.5928 12.7755 17.3867 13.18C17.0671 13.8072 16.5572 14.3171 15.93 14.6367C15.5255 14.8428 15.0949 14.9249 14.6265 14.9632C14.1755 15 13.6219 15 12.9511 15H5.0489C4.3781 15 3.82447 15 3.37348 14.9632C2.90507 14.9249 2.47448 14.8428 2.07003 14.6367C1.44283 14.3171 0.932891 13.8072 0.613313 13.18C0.407237 12.7755 0.3251 12.3449 0.286829 11.8765C0.249982 11.4255 0.24999 10.8719 0.25 10.2011V10.2011V4.79892V4.79891C0.24999 4.1281 0.249982 3.57447 0.286829 3.12348C0.3251 2.65506 0.407237 2.22448 0.613313 1.82003C0.932891 1.19283 1.44283 0.682891 2.07003 0.363313C2.47448 0.157237 2.90506 0.0751001 3.37348 0.0368291C3.82447 -1.8465e-05 4.3781 -9.96014e-06 5.0489 3.43039e-07H5.04892ZM3.5092 1.69796C3.14385 1.72781 2.95702 1.78192 2.82668 1.84832C2.51308 2.00811 2.25811 2.26308 2.09832 2.57668C2.03192 2.70702 1.97781 2.89385 1.94796 3.2592C1.92797 3.50386 1.92075 3.79539 1.91814 4.16667H16.0819C16.0793 3.79539 16.072 3.50386 16.052 3.2592C16.0222 2.89385 15.9681 2.70702 15.9017 2.57668C15.7419 2.26308 15.4869 2.00811 15.1733 1.84832C15.043 1.78192 14.8561 1.72781 14.4908 1.69796C14.1157 1.66732 13.6305 1.66667 12.9167 1.66667H5.08333C4.36952 1.66667 3.88427 1.66732 3.5092 1.69796ZM16.0833 5.83333H1.91667V10.1667C1.91667 10.8805 1.91732 11.3657 1.94796 11.7408C1.97781 12.1061 2.03192 12.293 2.09832 12.4233C2.25811 12.7369 2.51308 12.9919 2.82668 13.1517C2.95702 13.2181 3.14385 13.2722 3.5092 13.302C3.88427 13.3327 4.36952 13.3333 5.08333 13.3333H12.9167C13.6305 13.3333 14.1157 13.3327 14.4908 13.302C14.8561 13.2722 15.043 13.2181 15.1733 13.1517C15.4869 12.9919 15.7419 12.7369 15.9017 12.4233C15.9681 12.293 16.0222 12.1061 16.052 11.7408C16.0827 11.3657 16.0833 10.8805 16.0833 10.1667V5.83333ZM10.25 8.33333C10.25 8.79357 9.8769 9.16667 9.41667 9.16667H4.41667C3.95643 9.16667 3.58333 8.79357 3.58333 8.33333C3.58333 7.8731 3.95643 7.5 4.41667 7.5H9.41667C9.8769 7.5 10.25 7.8731 10.25 8.33333Z" fill="#3244E6"/>
</svg>