<svg width="50" height="50" viewBox="0 0 50 50" fill="none" xmlns="http://www.w3.org/2000/svg">
<g id="arbitrum-arb-logo 1" clip-path="url(#clip0_41_1064)">
<g id="Layer_x0020_1">
<g id="_2405588477232">
<g id="Group">
<g id="Group_2">
<path id="Vector" d="M4.52002 15.2V34.8C4.52002 36.06 5.18002 37.2 6.28002 37.84L23.26 47.64C24.34 48.26 25.68 48.26 26.76 47.64L43.74 37.84C44.82 37.22 45.5 36.06 45.5 34.8V15.2C45.5 13.94 44.84 12.8 43.74 12.16L26.76 2.36C25.68 1.74 24.34 1.74 23.26 2.36L6.28002 12.16C5.20002 12.78 4.54002 13.94 4.54002 15.2H4.52002Z" fill="#213147"/>
<g id="Group_3">
<g id="Group_4">
<g id="Group_5">
<path id="Vector_2" d="M28.7001 28.8L26.2801 35.44C26.2201 35.62 26.2201 35.82 26.2801 36.02L30.4401 47.44L35.2601 44.66L29.4801 28.8C29.3401 28.44 28.8401 28.44 28.7001 28.8Z" fill="#12AAFF"/>
</g>
<g id="Group_6">
<path id="Vector_3" d="M33.5602 17.64C33.4202 17.28 32.9202 17.28 32.7802 17.64L30.3602 24.28C30.3002 24.46 30.3002 24.66 30.3602 24.86L37.1802 43.56L42.0002 40.78L33.5602 17.66V17.64Z" fill="#12AAFF"/>
</g>
</g>
</g>
<g id="Group_7">
<path id="Vector_4" d="M25.0001 3.1C25.1201 3.1 25.2401 3.14 25.3401 3.2L43.7001 13.8C43.9201 13.92 44.0401 14.16 44.0401 14.4V35.6C44.0401 35.84 43.9001 36.08 43.7001 36.2L25.3401 46.8C25.2401 46.86 25.1201 46.9 25.0001 46.9C24.8801 46.9 24.7601 46.86 24.6601 46.8L6.30009 36.2C6.08009 36.08 5.96009 35.84 5.96009 35.6V14.38C5.96009 14.14 6.10009 13.9 6.30009 13.78L24.6601 3.18C24.7601 3.12 24.8801 3.08 25.0001 3.08V3.1ZM25.0001 0C24.3401 0 23.7001 0.16 23.1001 0.5L4.74009 11.1C3.56009 11.78 2.84009 13.02 2.84009 14.38V35.58C2.84009 36.94 3.56009 38.18 4.74009 38.86L23.1001 49.46C23.6801 49.8 24.3401 49.96 25.0001 49.96C25.6601 49.96 26.3001 49.8 26.9001 49.46L45.2601 38.86C46.4401 38.18 47.1601 36.94 47.1601 35.58V14.38C47.1601 13.02 46.4401 11.78 45.2601 11.1L26.8801 0.5C26.3001 0.16 25.6401 0 24.9801 0H25.0001Z" fill="#9DCCED"/>
</g>
<path id="Vector_5" d="M12.8401 43.58L14.5401 38.94L17.9401 41.76L14.7601 44.68L12.8401 43.58Z" fill="#213147"/>
<g id="Group_8">
<path id="Vector_6" d="M23.44 12.88H18.78C18.44 12.88 18.12 13.1 18 13.42L8.02002 40.78L12.84 43.56L23.84 13.42C23.94 13.14 23.74 12.86 23.46 12.86L23.44 12.88Z" fill="white"/>
<path id="Vector_7" d="M31.6 12.88H26.94C26.6 12.88 26.28 13.1 26.16 13.42L14.76 44.66L19.58 47.44L31.98 13.42C32.08 13.14 31.88 12.86 31.6 12.86V12.88Z" fill="white"/>
</g>
</g>
</g>
</g>
</g>
</g>
<defs>
<clipPath id="clip0_41_1064">
<rect width="50" height="50" fill="white"/>
</clipPath>
</defs>
</svg>
