<svg width="48" height="48" viewBox="0 0 48 48" fill="none" xmlns="http://www.w3.org/2000/svg">
<g id="Aurora-logo-token-trans 1" clip-path="url(#clip0_41_978)">
<g id="b">
<g id="c">
<g id="Group">
<path id="Vector" d="M34 0H14C6.26801 0 0 6.26801 0 14V34C0 41.732 6.26801 48 14 48H34C41.732 48 48 41.732 48 34V14C48 6.26801 41.732 0 34 0Z" fill="#5DEB5A"/>
<path id="Vector_2" d="M23.9352 12.1729C25.0449 12.1729 26.043 12.7895 26.5396 13.7822L34.7287 30.161C35.1832 31.0705 35.1356 32.1291 34.6016 32.9941C34.0669 33.859 33.1414 34.3753 32.1243 34.3753H15.7461C14.7297 34.3753 13.8036 33.859 13.2695 32.9941C12.7348 32.1291 12.6873 31.0705 13.1424 30.161L21.3309 13.7822C21.8275 12.7895 22.8255 12.1729 23.9352 12.1729ZM23.9352 10.1709C22.074 10.1709 20.3727 11.2224 19.5404 12.8869L11.3513 29.2657C10.5897 30.7889 10.6711 32.5978 11.5663 34.0461C12.4616 35.4945 14.043 36.3766 15.7461 36.3766H32.1249C33.8281 36.3766 35.4095 35.4951 36.3047 34.0461C37.2 32.5978 37.2814 30.7889 36.5198 29.2657L28.3301 12.8869C27.4978 11.2224 25.7964 10.1709 23.9352 10.1709Z" fill="white"/>
</g>
</g>
</g>
</g>
<defs>
<clipPath id="clip0_41_978">
<rect width="48" height="48" fill="white"/>
</clipPath>
</defs>
</svg>
