<svg width="50" height="50" viewBox="0 0 50 50" fill="none" xmlns="http://www.w3.org/2000/svg">
<g id="avalanche-avax-logo 1" clip-path="url(#clip0_41_1089)">
<path id="Vector" d="M40.4192 8.57712H9.54761V36.6356H40.4192V8.57712Z" fill="white"/>
<path id="Vector_2" fill-rule="evenodd" clip-rule="evenodd" d="M49.9833 25C49.9833 38.7889 38.798 49.9667 25 49.9667C11.202 49.9667 0.0166016 38.7889 0.0166016 25C0.0166016 11.2112 11.202 0.0332336 25 0.0332336C38.798 0.0332336 49.9833 11.2112 49.9833 25ZM17.9204 34.9355H13.0718C12.053 34.9355 11.5497 34.9355 11.2429 34.7393C10.9114 34.5246 10.7089 34.1689 10.6844 33.7763C10.6659 33.4146 10.9176 32.9728 11.4209 32.0896L23.3926 11.0018C23.902 10.1063 24.1597 9.6586 24.485 9.49301C24.8349 9.31515 25.2522 9.31515 25.6021 9.49301C25.9273 9.6586 26.1851 10.1063 26.6945 11.0018L29.1557 15.2952L29.1682 15.3171C29.7184 16.2777 29.9974 16.7649 30.1192 17.2762C30.2542 17.8344 30.2542 18.4232 30.1192 18.9813C29.9965 19.4965 29.7203 19.9872 29.1618 20.9624L22.8733 32.0712L22.8571 32.0997C22.3032 33.0682 22.0226 33.5592 21.6336 33.9295C21.2101 34.3344 20.7007 34.6286 20.1422 34.7945C19.6327 34.9355 19.062 34.9355 17.9204 34.9355ZM30.1646 34.9355H37.1121C38.137 34.9355 38.6527 34.9355 38.9597 34.7334C39.2911 34.5186 39.4996 34.1566 39.5183 33.7643C39.5359 33.4142 39.2897 32.9897 38.8074 32.1578C38.7907 32.1295 38.7741 32.1007 38.7571 32.0713L35.2771 26.122L35.2375 26.055C34.7485 25.2286 34.5016 24.8113 34.1846 24.65C33.835 24.4721 33.4235 24.4721 33.0738 24.65C32.7546 24.8156 32.4969 25.2511 31.9875 26.1281L28.5198 32.0775L28.5079 32.098C28.0003 32.9736 27.7466 33.4112 27.7649 33.7703C27.7895 34.1629 27.992 34.5246 28.3234 34.7393C28.6242 34.9355 29.1397 34.9355 30.1646 34.9355Z" fill="#E84142"/>
</g>
<defs>
<clipPath id="clip0_41_1089">
<rect width="50" height="50" fill="white"/>
</clipPath>
</defs>
</svg>
