<svg width="57" height="22" viewBox="0 0 57 22" fill="none" xmlns="http://www.w3.org/2000/svg">
<g id="chia-network-xch-logo 1" clip-path="url(#clip0_41_1058)">
<path id="Vector" d="M34.2456 7.15873H39.2195V21.7672H34.2456V7.15873Z" fill="#3AAC59"/>
<path id="Vector_2" d="M27.4423 6.05291C25.5556 6.05291 23.6118 6.51852 23.0973 7.39154C23.0973 7.39154 23.0973 7.39154 23.0973 7.44974V1.28043H18.009V11C18.5235 11.2328 19.0381 11.5238 19.5526 11.8148C19.7241 11.9312 19.8956 11.9894 20.01 12.0476C20.0672 12.1058 20.1243 12.1058 20.2387 12.164C20.2387 12.164 17.3229 16.7619 13.3781 17.6931C11.0341 18.2751 8.28983 17.5767 7.71811 15.1905C7.71811 15.0741 7.66094 15.0159 7.66094 14.8995C8.06114 14.6667 8.40417 14.4921 8.80437 14.2593C9.77629 13.8519 10.5195 13.5026 10.8054 13.3862H10.8625C13.2066 12.5132 15.1504 12.2222 15.1504 12.2222C13.3781 12.0476 11.8916 12.164 10.5767 12.455C9.43326 12.6878 8.46134 13.037 7.77528 13.3862C8.17548 11.6984 9.66194 10.1852 11.4343 9.77778C11.6058 9.71958 11.7201 9.71958 11.8916 9.66138C11.9488 9.66138 12.006 9.66138 12.006 9.66138C12.1203 9.66138 12.2347 9.60318 12.349 9.60318C12.4062 9.60318 12.4062 9.60318 12.4633 9.60318C12.6349 9.60318 12.7492 9.60318 12.9207 9.60318C12.9779 9.60318 12.9779 9.60318 13.0351 9.60318C13.1494 9.60318 13.3209 9.60318 13.4353 9.60318C13.4924 9.60318 13.5496 9.60318 13.5496 9.60318C13.6068 9.60318 13.6639 9.60318 13.6639 9.60318C14.4072 9.66138 15.3219 9.89418 16.351 10.2434V6.98413C15.8365 6.80953 15.3219 6.69312 14.8074 6.51852C13.3209 6.16931 10.8625 5.76191 8.17548 6.40212C3.83045 7.44974 2.62985 10.709 2.62985 14.6667C2.62985 15.1905 2.68702 15.6561 2.74419 16.0635C1.82945 16.7037 0.85753 17.4021 0.0571289 18.2169C0.0571289 18.2169 1.3149 17.6349 2.97288 16.9365C4.05913 20.7196 7.9468 22 10.8054 22C13.8355 22 15.7793 21.127 18.0662 19.672V21.5344H23.1544V12.3968C23.1544 12.3968 23.1544 12.3968 23.1544 12.3386V12.2222C23.6118 10.9418 24.4694 10.5926 25.3841 10.5926C26.5847 10.5926 27.3279 11.4656 27.3279 12.8624V21.5926H32.4162V11.3492C32.4162 8.14815 30.4152 6.05291 27.4423 6.05291Z" fill="#3AAC59"/>
<path id="Vector_3" d="M36.647 0C35.1033 0 34.0171 1.10582 34.0171 2.67725C34.0171 4.24868 35.1033 5.3545 36.647 5.3545C38.1906 5.3545 39.2769 4.24868 39.2769 2.67725C39.2769 1.10582 38.1906 0 36.647 0Z" fill="#3AAC59"/>
<path id="Vector_4" d="M56.1424 13.2698V6.75133H51.0541V7.68254C46.1374 4.48148 42.993 7.79894 42.993 7.79894C41.5065 9.19577 40.6489 11.3492 40.6489 14.1429C40.6489 19.0317 43.5647 21.9418 47.2808 21.9418C48.7101 21.9418 49.9679 21.5926 51.1113 20.0212C51.2257 20.3704 51.5115 21.3016 51.7402 21.5926H57.0572C56.0852 20.0212 56.0852 14.7831 56.1424 13.2698ZM48.4243 17.6349C46.7663 17.6349 45.6229 16.1799 45.6229 14.1429C45.6229 12.1058 46.7663 10.6508 48.4243 10.6508C49.5677 10.6508 50.4824 11.3492 50.9398 12.5132V15.8307C50.4824 16.9365 49.5677 17.6349 48.4243 17.6349Z" fill="#3AAC59"/>
</g>
<defs>
<clipPath id="clip0_41_1058">
<rect width="57" height="22" fill="white"/>
</clipPath>
</defs>
</svg>
