<svg width="50" height="49" viewBox="0 0 50 49" fill="none" xmlns="http://www.w3.org/2000/svg">
<g id="2022_V-Brand_2022-FullColour-1 1" clip-path="url(#clip0_41_1043)">
<g id="2022_V-Brand_2022 FullColour">
<path id="Path 1" d="M50.3122 24.6367C50.2146 20.1222 48.9038 15.7172 46.5173 11.8838C44.1308 8.0504 40.7566 4.92996 36.7487 2.84985C32.7408 0.769751 28.2469 -0.193338 23.7386 0.0616286C19.2302 0.316595 14.8736 1.78022 11.1258 4.29894C7.37795 6.81767 4.37708 10.2986 2.43802 14.3767C0.498956 18.4547 -0.306823 22.9794 0.105214 27.4761C0.517251 31.9728 2.13192 36.2757 4.77981 39.9334C7.42771 43.5911 11.0112 46.4688 15.1544 48.2645C16.3781 46.4251 17.3148 44.4101 17.9322 42.2889C18.4366 41.0056 18.9844 39.7433 19.5522 38.5222C20.9219 38.9325 22.3775 38.9632 23.7633 38.611C25.1492 38.2587 26.4134 37.5368 27.421 36.5222L27.5055 36.4378C26.268 35.9776 24.9341 35.8381 23.6281 36.0324C22.3221 36.2267 21.0866 36.7484 20.0366 37.5489C20.731 36.0967 21.4888 34.6878 22.2666 33.32C23.6113 33.7956 25.0601 33.8961 26.4575 33.6107C27.855 33.3253 29.1483 32.6648 30.1988 31.7L30.2833 31.6156C29.0877 31.1098 27.7854 30.9085 26.493 31.0297C25.2006 31.1509 23.9584 31.5908 22.8777 32.31C23.6555 31.0267 24.4555 29.7645 25.2977 28.5856C26.6893 28.951 28.1543 28.9286 29.534 28.5206C30.9137 28.1126 32.1554 27.3346 33.1244 26.2711L33.1877 26.1867C32.0385 25.8119 30.8174 25.7119 29.6226 25.8946C28.4277 26.0774 27.2924 26.5378 26.3077 27.2389C26.371 27.1545 26.4555 27.05 26.5177 26.9656C27.0222 26.3133 27.5488 25.6611 28.0733 25.03C29.6746 24.506 31.1027 23.5551 32.2038 22.2797C33.3049 21.0044 34.0373 19.4529 34.3222 17.7922L34.3433 17.6656H34.3222C32.6547 18.0992 31.1421 18.9913 29.9557 20.2407C28.7694 21.4901 27.9568 23.0468 27.6099 24.7345C27.1055 25.3445 26.5999 25.9567 26.1166 26.5856C26.5247 25.5188 26.6911 24.3749 26.6039 23.2361C26.5166 22.0974 26.1779 20.9921 25.6122 20L25.5488 20.0844C24.6904 21.2569 24.1732 22.644 24.0543 24.0922C23.9355 25.5404 24.2197 26.9933 24.8755 28.29C24.0755 29.4267 23.2977 30.5833 22.561 31.8033C22.7983 30.5769 22.7367 29.3114 22.3814 28.1139C22.0261 26.9163 21.3876 25.8219 20.5199 24.9233L20.4777 25.0289C19.941 26.3662 19.7827 27.8255 20.0202 29.2468C20.2578 30.6681 20.882 31.9966 21.8244 33.0867C21.0877 34.37 20.3933 35.6956 19.7199 37.0633C19.9245 35.7859 19.8212 34.4781 19.4187 33.2486C19.0161 32.0192 18.3259 30.9035 17.4055 29.9944L17.3633 30.1C16.8832 31.5018 16.7941 33.0079 17.1056 34.4566C17.417 35.9052 18.1173 37.2416 19.131 38.3222C18.6866 39.2689 18.2688 40.2111 17.8688 41.2045C17.7588 41.1035 17.6301 41.0249 17.4899 40.9733C16.7721 40.7648 16.0855 40.4606 15.4488 40.0689C14.9224 39.7565 14.3636 39.5025 13.7822 39.3111C11.5099 38.5745 11.8466 37.4811 10.671 35.2711C10.2885 34.8161 9.88201 34.3818 9.45327 33.97C9.0555 33.712 8.72977 33.3572 8.5066 32.9389C8.24739 32.4165 8.08333 31.8522 8.02215 31.2722C8.01519 30.9515 7.90792 30.6409 7.71541 30.3842C7.5229 30.1276 7.25482 29.9376 6.94882 29.8411C3.60327 28.6844 5.09771 24.35 5.22327 23.7811C5.17185 23.0455 5.00848 22.3219 4.73882 21.6356C4.71064 21.5462 4.68947 21.4548 4.67548 21.3622C4.58622 20.9131 4.60249 20.4494 4.723 20.0077C4.84351 19.5659 5.06497 19.1582 5.36993 18.8167C5.76993 18.4167 7.15882 17.7644 7.45326 17.3856C7.74771 17.0067 7.95771 16.5856 8.25326 16.2289C9.18806 15.2964 10.268 14.5219 11.451 13.9356C12.4188 13.41 12.5877 12.0633 12.9655 11.6422C13.5966 10.9267 14.5644 10.9267 15.2799 10.2956C15.6377 9.98001 16.1688 9.81112 16.5022 9.47556C18.1827 7.93647 20.3007 6.95864 22.5622 6.67778C24.1303 6.54992 25.7089 6.69237 27.2288 7.0989C27.4488 7.13585 27.6666 7.18518 27.881 7.24667C31.3522 7.37334 35.5188 8.08778 37.0333 9.56112C37.783 10.2815 38.34 11.1785 38.6533 12.17C38.8993 12.9378 39.2385 13.6725 39.6633 14.3578L40.5888 15.8722C41.1786 16.8273 41.3674 17.9765 41.1144 19.07C40.9438 19.6018 40.9292 20.1713 41.0722 20.7111C41.5603 21.4481 42.1323 22.1259 42.7766 22.7311C43.0326 22.9844 43.3145 23.2101 43.6177 23.4044C44.33 23.8294 45.0184 24.293 45.6799 24.7933C45.7016 24.9961 45.6681 25.201 45.5828 25.3863C45.4975 25.5715 45.3637 25.7302 45.1955 25.8456C44.6066 26.3711 43.4699 27.1922 43.4699 27.1922C43.511 27.4247 43.5816 27.6509 43.6799 27.8656C43.8477 28.16 44.2266 28.6233 44.101 29.0222C43.9755 29.4211 43.1544 29.7589 43.3855 30.2C43.6166 30.6633 44.2055 30.7889 44.0377 31.21C43.8699 31.61 43.0488 32.3211 43.1333 32.62C43.2177 32.9189 43.891 35.7311 42.3333 36.2178C40.4054 36.599 38.4489 36.8172 36.4844 36.87C36.1675 36.8883 35.8604 36.9867 35.5918 37.1559C35.3233 37.3252 35.102 37.5598 34.9488 37.8378C34.6506 38.3939 34.4581 39.0004 34.381 39.6267C33.8127 41.8662 33.0597 44.0548 32.1299 46.17C32.1299 46.17 32.0666 46.2967 31.9822 46.4856C31.7781 46.9014 31.6498 47.3503 31.6033 47.8111C31.7357 48.1497 31.9361 48.4575 32.1922 48.7156C32.327 48.87 32.5037 48.982 32.701 49.038C32.8982 49.094 33.1074 49.0916 33.3033 49.0311C38.3458 47.2738 42.7049 43.9694 45.7591 39.589C48.8133 35.2086 50.4067 29.9759 50.3122 24.6367Z" fill="#00DACC"/>
</g>
</g>
<defs>
<clipPath id="clip0_41_1043">
<rect width="50" height="48.8889" fill="white"/>
</clipPath>
</defs>
</svg>
