<svg width="50" height="50" viewBox="0 0 50 50" fill="none" xmlns="http://www.w3.org/2000/svg">
<g id="optimism-ethereum-op-logo 1" clip-path="url(#clip0_41_1028)">
<path id="Vector" d="M25 50C38.8071 50 50 38.8071 50 25C50 11.1929 38.8071 0 25 0C11.1929 0 0 11.1929 0 25C0 38.8071 11.1929 50 25 50Z" fill="#FF0420"/>
<path id="Vector_2" d="M17.7099 31.64C16.2199 31.64 14.9999 31.29 14.0499 30.59C13.1099 29.88 12.6399 28.86 12.6399 27.55C12.6399 27.27 12.6699 26.94 12.7299 26.54C12.8899 25.64 13.1199 24.56 13.4199 23.29C14.2699 19.85 16.4699 18.13 20.0099 18.13C20.9699 18.13 21.8399 18.29 22.5999 18.62C23.3599 18.93 23.9599 19.41 24.3999 20.05C24.8399 20.68 25.0599 21.43 25.0599 22.3C25.0599 22.56 25.0299 22.89 24.9699 23.29C24.7799 24.4 24.5599 25.49 24.2899 26.54C23.8499 28.25 23.0999 29.54 22.0199 30.39C20.9499 31.23 19.5099 31.64 17.7099 31.64ZM17.9799 28.94C18.6799 28.94 19.2699 28.73 19.7599 28.32C20.2599 27.91 20.6199 27.28 20.8299 26.42C21.1199 25.24 21.3399 24.22 21.4899 23.34C21.5399 23.08 21.5699 22.81 21.5699 22.53C21.5699 21.39 20.9799 20.82 19.7899 20.82C19.0899 20.82 18.4899 21.03 17.9899 21.44C17.4999 21.85 17.1499 22.48 16.9399 23.34C16.7099 24.18 16.4899 25.2 16.2599 26.42C16.2099 26.67 16.1799 26.93 16.1799 27.21C16.1699 28.37 16.7799 28.94 17.9799 28.94Z" fill="white"/>
<path id="Vector_3" d="M25.93 31.46C25.79 31.46 25.69 31.42 25.61 31.33C25.55 31.23 25.53 31.12 25.55 30.99L28.14 18.79C28.16 18.65 28.23 18.54 28.35 18.45C28.46 18.36 28.58 18.32 28.71 18.32H33.7C35.09 18.32 36.2 18.61 37.04 19.18C37.89 19.76 38.32 20.59 38.32 21.68C38.32 21.99 38.28 22.32 38.21 22.66C37.9 24.1 37.27 25.16 36.31 25.85C35.37 26.54 34.08 26.88 32.44 26.88H29.91L29.05 30.99C29.02 31.13 28.96 31.24 28.84 31.33C28.73 31.42 28.61 31.46 28.48 31.46H25.93ZM32.57 24.29C33.1 24.29 33.55 24.15 33.94 23.86C34.34 23.57 34.6 23.16 34.73 22.62C34.77 22.41 34.79 22.22 34.79 22.06C34.79 21.7 34.68 21.42 34.47 21.23C34.26 21.03 33.89 20.93 33.38 20.93H31.13L30.42 24.29H32.57Z" fill="white"/>
</g>
<defs>
<clipPath id="clip0_41_1028">
<rect width="50" height="50" fill="white"/>
</clipPath>
</defs>
</svg>
