<svg xmlns="http://www.w3.org/2000/svg" width="37" height="37" viewBox="0 0 37 37" fill="none">
<path d="M21.5835 12.3333H6.16683C4.46637 12.3333 3.0835 13.7162 3.0835 15.4166V30.8333C3.0835 32.5338 4.46637 33.9166 6.16683 33.9166H21.5835C23.284 33.9166 24.6668 32.5338 24.6668 30.8333V15.4166C24.6668 13.7162 23.284 12.3333 21.5835 12.3333Z" fill="#4F4F4F"/>
<path d="M30.8335 3.08331H15.4168C14.5991 3.08331 13.8148 3.40816 13.2366 3.9864C12.6583 4.56464 12.3335 5.3489 12.3335 6.16665V9.24998H24.6668C25.4846 9.24998 26.2688 9.57483 26.8471 10.1531C27.4253 10.7313 27.7502 11.5156 27.7502 12.3333V24.6666H30.8335C31.6512 24.6666 32.4355 24.3418 33.0137 23.7636C33.592 23.1853 33.9168 22.4011 33.9168 21.5833V6.16665C33.9168 5.3489 33.592 4.56464 33.0137 3.9864C32.4355 3.40816 31.6512 3.08331 30.8335 3.08331Z" fill="#4F4F4F"/>
</svg>