<svg width="111" height="111" viewBox="0 0 111 111" fill="none" xmlns="http://www.w3.org/2000/svg">
<path fill-rule="evenodd" clip-rule="evenodd" d="M55.4996 3.91071C27.0076 3.91071 3.9103 27.008 3.9103 55.5C3.9103 83.992 27.0076 107.089 55.4996 107.089C83.9916 107.089 107.089 83.992 107.089 55.5C107.089 27.008 83.9916 3.91071 55.4996 3.91071ZM0.0888672 55.5C0.0888672 24.8975 24.8971 0.0892792 55.4996 0.0892792C86.1021 0.0892792 110.91 24.8975 110.91 55.5C110.91 86.1025 86.1021 110.911 55.4996 110.911C24.8971 110.911 0.0888672 86.1025 0.0888672 55.5ZM55.4996 28.75C56.5548 28.75 57.4103 29.6055 57.4103 30.6607V75.7264L66.3082 66.8285C67.0544 66.0823 68.2642 66.0823 69.0104 66.8285C69.7566 67.5747 69.7566 68.7845 69.0104 69.5306L56.8507 81.6904C56.1045 82.4365 54.8947 82.4365 54.1485 81.6904L41.9888 69.5306C41.2426 68.7845 41.2426 67.5747 41.9888 66.8285C42.735 66.0823 43.9448 66.0823 44.6909 66.8285L53.5889 75.7264V30.6607C53.5889 29.6055 54.4443 28.75 55.4996 28.75Z" fill="#514E4E"/>
</svg>
