<svg width="462" height="87" viewBox="0 0 462 87" fill="none" xmlns="http://www.w3.org/2000/svg">
<path d="M118.591 26.3024C118.591 20.0427 120.314 14.8923 123.761 10.8513C127.208 6.81019 131.883 4.78965 137.786 4.78965C143.016 4.78965 147.255 6.29515 150.503 9.30614C153.792 12.2775 155.753 16.3582 156.387 21.5482H152.465C151.989 17.2694 150.484 13.9613 147.948 11.6238C145.452 9.28633 142.065 8.11759 137.786 8.11759C132.834 8.11759 129.05 9.80137 126.435 13.1689C123.82 16.4969 122.513 20.8747 122.513 26.3024C122.513 31.7697 123.82 36.1872 126.435 39.5547C129.05 42.8827 132.834 44.5467 137.786 44.5467C142.065 44.5467 145.452 43.3779 147.948 41.0404C150.484 38.6633 151.989 35.3354 152.465 31.0566H156.387C155.753 36.2862 153.792 40.4065 150.503 43.4175C147.255 46.3889 143.016 47.8746 137.786 47.8746C131.883 47.8746 127.208 45.8541 123.761 41.813C120.314 37.7719 118.591 32.6017 118.591 26.3024Z" fill="white"/>
<path d="M161.144 39.0793C161.144 36.7022 161.897 34.7807 163.402 33.3149C164.908 31.8094 167.225 30.9179 170.355 30.6406L182.597 29.5115C182.241 23.5687 179.309 20.5974 173.802 20.5974C171.306 20.5974 169.226 21.2511 167.562 22.5585C165.898 23.8263 165.066 25.8864 165.066 28.7389H161.144C161.144 25.6091 162.253 22.915 164.472 20.6568C166.73 18.3986 169.84 17.2694 173.802 17.2694C177.803 17.2694 180.913 18.5174 183.132 21.0134C185.39 23.4697 186.519 26.6392 186.519 30.5218V43.9524H190.858V47.2803H185.866C183.687 47.2803 182.597 46.1908 182.597 44.0118V42.229L183.191 39.2576H182.003C181.369 41.7536 180.141 43.8137 178.318 45.4381C176.496 47.0624 173.98 47.8746 170.771 47.8746C168.79 47.8746 167.106 47.5775 165.72 46.9832C164.373 46.3889 163.382 45.5965 162.748 44.6061C162.154 43.6156 161.738 42.6846 161.5 41.813C161.263 40.9414 161.144 40.0302 161.144 39.0793ZM165.066 38.7228C165.066 40.5848 165.601 42.0309 166.671 43.061C167.74 44.0514 169.226 44.5467 171.128 44.5467C174.574 44.5467 177.348 43.4373 179.447 41.2187C181.547 39.0001 182.597 36.207 182.597 32.8394L170.949 33.9686C168.929 34.1667 167.443 34.6223 166.492 35.3354C165.541 36.0485 165.066 37.1776 165.066 38.7228Z" fill="white"/>
<path d="M193.831 47.2803V43.9524H202.091V6.33477L196.208 6.92904V3.6011L202.151 3.00682C203.458 2.84835 204.429 3.10587 205.063 3.77938C205.696 4.4529 206.013 5.48297 206.013 6.86962V43.9524H214.274V47.2803H193.831Z" fill="white"/>
<path d="M230.603 11.6238C229.811 12.4162 228.86 12.8124 227.751 12.8124C226.642 12.8124 225.691 12.4162 224.898 11.6238C224.146 10.8315 223.769 9.88061 223.769 8.7713C223.769 7.7016 224.146 6.77057 224.898 5.9782C225.691 5.18584 226.642 4.78965 227.751 4.78965C228.86 4.78965 229.811 5.18584 230.603 5.9782C231.396 6.77057 231.792 7.7016 231.792 8.7713C231.792 9.88061 231.396 10.8315 230.603 11.6238ZM218.421 47.2803V43.9524H226.681V20.5974L220.798 21.1916V17.8637L226.741 17.2694C229.157 17.0713 230.366 18.1608 230.366 20.5379V43.9524H238.626V47.2803H218.421Z" fill="white"/>
<path d="M257.859 6.92904C255.918 6.92904 254.571 7.38465 253.818 8.29588C253.105 9.2071 252.748 10.673 252.748 12.6935V17.8637H261.306V21.1916H252.748V43.9524H261.306V47.2803H242.17V43.9524H248.826V21.1916H242.17V17.8637H248.826V12.6341C248.826 6.6121 251.837 3.6011 257.859 3.6011H262.97V6.92904H257.859Z" fill="white"/>
<path d="M265.368 32.5423C265.368 28.3031 266.774 24.6979 269.587 21.7265C272.4 18.7551 276.104 17.2694 280.7 17.2694C285.256 17.2694 288.94 18.7551 291.753 21.7265C294.566 24.6979 295.973 28.3031 295.973 32.5423C295.973 36.8211 294.566 40.4462 291.753 43.4175C288.94 46.3889 285.256 47.8746 280.7 47.8746C276.104 47.8746 272.4 46.3889 269.587 43.4175C266.774 40.4462 265.368 36.8211 265.368 32.5423ZM269.29 32.5423C269.29 35.9495 270.28 38.802 272.261 41.0999C274.282 43.3977 277.095 44.5467 280.7 44.5467C284.265 44.5467 287.039 43.3977 289.02 41.0999C291.04 38.7624 292.05 35.9099 292.05 32.5423C292.05 29.1747 291.04 26.342 289.02 24.0442C287.039 21.7463 284.265 20.5974 280.7 20.5974C277.134 20.5974 274.341 21.7463 272.321 24.0442C270.3 26.342 269.29 29.1747 269.29 32.5423Z" fill="white"/>
<path d="M301.927 47.2803V21.1322C301.927 18.4382 303.214 17.1506 305.789 17.2694L321.538 17.8637V21.1916L305.849 20.5974V47.2803H301.927Z" fill="white"/>
<path d="M341.246 20.5974C337.998 20.5974 335.343 21.8255 333.283 24.2819C331.223 26.6986 330.193 29.8681 330.193 33.7903V47.2803H326.271V17.8637H330.193V23.2716L329.598 26.243H330.787C331.421 23.4697 332.689 21.2907 334.59 19.706C336.532 18.0816 339.047 17.2694 342.138 17.2694C345.505 17.2694 348.14 18.2401 350.042 20.1814C351.943 22.0831 352.894 24.9752 352.894 28.8578V47.2803H348.972V29.3332C348.972 26.243 348.338 24.0244 347.07 22.6773C345.842 21.2907 343.901 20.5974 341.246 20.5974Z" fill="white"/>
<path d="M370.43 11.6238C369.637 12.4162 368.687 12.8124 367.577 12.8124C366.468 12.8124 365.517 12.4162 364.725 11.6238C363.972 10.8315 363.596 9.88061 363.596 8.7713C363.596 7.7016 363.972 6.77057 364.725 5.9782C365.517 5.18584 366.468 4.78965 367.577 4.78965C368.687 4.78965 369.637 5.18584 370.43 5.9782C371.222 6.77057 371.618 7.7016 371.618 8.7713C371.618 9.88061 371.222 10.8315 370.43 11.6238ZM358.247 47.2803V43.9524H366.508V20.5974L360.624 21.1916V17.8637L366.567 17.2694C368.984 17.0713 370.192 18.1608 370.192 20.5379V43.9524H378.453V47.2803H358.247Z" fill="white"/>
<path d="M394.833 44.5467C398.082 44.5467 400.736 43.3383 402.796 40.9216C404.857 38.4652 405.887 35.276 405.887 31.3538V17.8637H409.809V47.2803H405.887V41.8724L406.481 38.901H405.292C404.658 41.6743 403.371 43.8731 401.43 45.4975C399.528 47.0822 397.032 47.8746 393.942 47.8746C390.574 47.8746 387.94 46.9238 386.038 45.0221C384.136 43.0808 383.185 40.1688 383.185 36.2862V17.8637H387.108V35.8108C387.108 38.901 387.722 41.1395 388.95 42.5261C390.218 43.8731 392.179 44.5467 394.833 44.5467Z" fill="white"/>
<path d="M452.542 17.2694C455.394 17.2694 457.593 18.2599 459.138 20.2408C460.723 22.2217 461.515 24.8365 461.515 28.0852V47.2803H457.593V29.3332C457.593 26.3222 457.118 24.1234 456.167 22.7368C455.256 21.3105 453.592 20.5974 451.175 20.5974C448.164 20.5974 445.747 21.8255 443.925 24.2819C442.102 26.6986 441.191 29.8681 441.191 33.7903V47.2803H437.269V29.3332C437.269 26.3222 436.794 24.1234 435.843 22.7368C434.932 21.3105 433.268 20.5974 430.851 20.5974C427.84 20.5974 425.423 21.8255 423.601 24.2819C421.778 26.6986 420.867 29.8681 420.867 33.7903V47.2803H416.945V17.8637H420.867V23.2716L420.273 26.243H421.461C422.808 20.2606 426.394 17.2694 432.218 17.2694C434.793 17.2694 436.833 18.0816 438.339 19.706C439.884 21.3303 440.795 23.5093 441.072 26.243H441.786C443.133 20.2606 446.718 17.2694 452.542 17.2694Z" fill="white"/>
<path d="M120.65 69.2546C122.665 69.2546 124.18 69.6069 125.194 70.3113C126.208 71.0157 126.716 72.2626 126.716 74.0518C126.716 75.8411 126.208 77.095 125.194 77.8135C124.18 78.5179 122.665 78.8701 120.65 78.8701H118.115V84.1534H116.72V69.2546H120.65ZM120.65 77.6867C121.383 77.6867 122.003 77.6444 122.51 77.5599C123.017 77.4613 123.496 77.2922 123.947 77.0527C124.412 76.7991 124.757 76.4258 124.983 75.9327C125.208 75.4396 125.321 74.8126 125.321 74.0518C125.321 72.6289 124.919 71.6709 124.116 71.1777C123.327 70.6846 122.172 70.4381 120.65 70.4381H118.115V77.6867H120.65Z" fill="url(#paint0_radial_110_707)"/>
<path d="M132.468 76.6935C132.468 74.4674 133.081 72.6359 134.306 71.1989C135.532 69.7618 137.195 69.0433 139.294 69.0433C141.393 69.0433 143.048 69.7618 144.26 71.1989C145.486 72.6359 146.099 74.4674 146.099 76.6935C146.099 78.9335 145.486 80.7721 144.26 82.2092C143.048 83.6462 141.393 84.3647 139.294 84.3647C137.195 84.3647 135.532 83.6462 134.306 82.2092C133.081 80.7721 132.468 78.9335 132.468 76.6935ZM133.863 76.6935C133.863 78.6377 134.328 80.2086 135.257 81.4061C136.187 82.5896 137.533 83.1813 139.294 83.1813C141.055 83.1813 142.393 82.5896 143.309 81.4061C144.239 80.2086 144.704 78.6377 144.704 76.6935C144.704 74.7633 144.239 73.2065 143.309 72.0231C142.393 70.8255 141.055 70.2268 139.294 70.2268C137.533 70.2268 136.187 70.8255 135.257 72.0231C134.328 73.2065 133.863 74.7633 133.863 76.6935Z" fill="url(#paint1_radial_110_707)"/>
<path d="M151.219 69.2546H152.53L155.721 83.7307H156.143L159.419 69.2546H162.251L165.526 83.7307H165.949L169.14 69.2546H170.45L167.154 84.1534H164.322L161.046 69.6773H160.623L157.348 84.1534H154.516L151.219 69.2546Z" fill="url(#paint2_radial_110_707)"/>
<path d="M176.217 84.1534V69.2546H185.157V70.4381H177.612V76.1017H184.1V77.2852H177.612V82.9699H185.157V84.1534H176.217Z" fill="url(#paint3_radial_110_707)"/>
<path d="M191.537 84.1534V69.2546H196.313C198.229 69.2546 199.645 69.5576 200.561 70.1634C201.491 70.7551 201.956 71.8399 201.956 73.4178C201.956 75.4607 201.096 76.6441 199.377 76.9682V77.3908H201.089C201.47 77.3908 201.737 77.4683 201.892 77.6233C202.061 77.7783 202.146 78.0319 202.146 78.3841V84.1534H200.751V78.0248H192.932V84.1534H191.537ZM192.932 76.8414H196.313C197.06 76.8414 197.659 76.8132 198.109 76.7569C198.56 76.6864 198.99 76.5455 199.398 76.3342C199.807 76.1229 200.103 75.7988 200.286 75.3621C200.469 74.9112 200.561 74.3336 200.561 73.6292C200.561 73.0515 200.49 72.5655 200.349 72.171C200.223 71.7765 200.054 71.4666 199.842 71.2411C199.631 71.0157 199.328 70.8467 198.934 70.734C198.553 70.6072 198.166 70.5297 197.771 70.5015C197.391 70.4592 196.905 70.4381 196.313 70.4381H192.932V76.8414Z" fill="url(#paint4_radial_110_707)"/>
<path d="M208.962 84.1534V69.2546H217.901V70.4381H210.357V76.1017H216.844V77.2852H210.357V82.9699H217.901V84.1534H208.962Z" fill="url(#paint5_radial_110_707)"/>
<path d="M228.846 69.2546C229.494 69.2546 230.086 69.2969 230.621 69.3814C231.171 69.4519 231.734 69.5787 232.312 69.7618C232.904 69.945 233.418 70.2197 233.855 70.586C234.292 70.9382 234.693 71.382 235.059 71.9174C235.426 72.4387 235.7 73.1079 235.884 73.925C236.081 74.7422 236.179 75.665 236.179 76.6935C236.179 77.9333 236.032 79.011 235.736 79.9268C235.454 80.8426 235.088 81.5681 234.637 82.1035C234.186 82.6248 233.622 83.0474 232.946 83.3715C232.27 83.6955 231.615 83.9068 230.981 84.0055C230.347 84.1041 229.635 84.1534 228.846 84.1534H224.282V69.2546H228.846ZM228.846 82.9699C229.48 82.9699 230.03 82.9418 230.495 82.8854C230.96 82.815 231.481 82.66 232.059 82.4205C232.636 82.1669 233.108 81.8288 233.474 81.4061C233.841 80.9694 234.151 80.3565 234.404 79.5675C234.658 78.7645 234.785 77.8065 234.785 76.6935C234.785 75.5945 234.658 74.6436 234.404 73.8405C234.151 73.0374 233.841 72.4246 233.474 72.0019C233.108 71.5793 232.636 71.2482 232.059 71.0087C231.481 70.7551 230.96 70.6001 230.495 70.5438C230.03 70.4733 229.48 70.4381 228.846 70.4381H225.676V82.9699H228.846Z" fill="url(#paint6_radial_110_707)"/>
<path d="M264.474 84.1534L262.487 78.1094H256.528L254.541 84.1534H253.168L258.071 69.2546H260.945L265.847 84.1534H264.474ZM256.908 76.9259H262.107L259.719 69.6773H259.296L256.908 76.9259Z" fill="url(#paint7_radial_110_707)"/>
<path d="M279.835 70.4381H276.517V82.9699H279.835V84.1534H271.804V82.9699H275.122V70.4381H271.804V69.2546H279.835V70.4381Z" fill="url(#paint8_radial_110_707)"/>
<path d="M10.3512 1.85622H74.711C79.9452 1.85622 84.1883 6.09933 84.1883 11.3335V75.6933C84.1883 80.9274 79.9452 85.1705 74.711 85.1705H10.3512C5.11709 85.1705 0.873976 80.9274 0.873976 75.6933V11.3335C0.873976 6.09933 5.11709 1.85622 10.3512 1.85622Z" stroke="url(#paint9_radial_110_707)" stroke-width="1.74795"/>
<path d="M18.5698 52.4661C18.5698 48.2346 19.8501 44.7443 22.4105 41.9951C24.971 39.219 28.394 37.8309 32.6794 37.8309C36.5336 37.8309 39.6601 38.8551 42.0589 40.9035C44.4577 42.925 45.8727 45.7011 46.3039 49.2318H41.0886C40.7652 47.0217 39.8623 45.3237 38.3799 44.1378C36.9245 42.9519 35.0513 42.359 32.7603 42.359C29.9303 42.359 27.7202 43.2619 26.13 45.0677C24.5667 46.8466 23.7851 49.3127 23.7851 52.4661C23.7851 55.6196 24.5667 58.0992 26.13 59.905C27.7202 61.7108 29.9303 62.6138 32.7603 62.6138C35.0513 62.6138 36.9245 62.0208 38.3799 60.8349C39.8623 59.622 40.7652 57.9105 41.0886 55.7004H46.3039C45.8727 59.2582 44.4577 62.0612 42.0589 64.1096C39.6601 66.131 36.5336 67.1418 32.6794 67.1418C28.394 67.1418 24.971 65.7672 22.4105 63.018C19.8501 60.2419 18.5698 56.7246 18.5698 52.4661Z" fill="white"/>
<path d="M49.4722 66.7375V38.2352H69.161V42.7633H54.6875V52.2236L67.8268 51.415V56.0239L54.6875 56.8324V66.7375H49.4722Z" fill="white"/>
<path d="M24.8488 26.4226C24.8488 27.4049 24.7415 28.2913 24.527 29.0816C24.3237 29.8607 24.0019 30.5495 23.5616 31.148C23.1325 31.7464 22.5454 32.1924 21.8001 32.486C21.0549 32.7682 20.1855 32.8642 19.1919 32.7739L15.4149 32.4352V30.5382L19.1919 30.877C20.3774 30.9786 21.292 30.7471 21.9356 30.1825C22.5905 29.618 23.0309 28.7429 23.2567 27.5573L23.8156 26.2532H23.2567C23.1212 27.1904 22.6583 27.9412 21.8679 28.5058C21.0888 29.0591 20.1403 29.3357 19.0225 29.3357C17.6111 29.3357 16.4989 28.9462 15.6859 28.1671C14.8842 27.3767 14.4834 26.3153 14.4834 24.9829C14.4834 23.6505 14.9463 22.5722 15.8722 21.748C16.8094 20.9124 18.0684 20.4946 19.6492 20.4946C21.2638 20.4946 22.5341 20.9971 23.46 22.002C24.3859 22.9956 24.8488 24.4692 24.8488 26.4226ZM22.6639 24.8135C22.6639 24.1586 22.3986 23.5941 21.8679 23.1199C21.3372 22.6343 20.5976 22.3916 19.6492 22.3916C17.6619 22.3916 16.6683 23.2553 16.6683 24.9829C16.6683 26.6201 17.6054 27.4388 19.4798 27.4388C20.496 27.4388 21.2807 27.2129 21.834 26.7613C22.3873 26.2983 22.6639 25.6491 22.6639 24.8135Z" fill="white"/>
<path d="M25.6186 29.2849C25.6186 28.3816 25.9009 27.7041 26.4655 27.2525C27.0413 26.8008 27.8374 26.4903 28.8536 26.3209V25.7451C27.1486 25.4628 26.2961 24.6442 26.2961 23.2892C26.2961 22.623 26.5163 22.0754 26.9566 21.6463C27.4083 21.2173 27.9616 20.9181 28.6165 20.7487C29.2714 20.5793 30.0166 20.4946 30.8521 20.4946C31.6877 20.4946 32.4329 20.5793 33.0878 20.7487C33.7427 20.9181 34.2903 21.2229 34.7307 21.6633C35.1823 22.0923 35.4082 22.6343 35.4082 23.2892C35.4082 24.6442 34.55 25.4628 32.8338 25.7451V26.3209C35.0017 26.6823 36.0856 27.6702 36.0856 29.2849C36.0856 30.4253 35.6171 31.2947 34.6799 31.8932C33.754 32.4803 32.4781 32.7739 30.8521 32.7739C29.2149 32.7739 27.9333 32.4803 27.0075 31.8932C26.0816 31.2947 25.6186 30.4253 25.6186 29.2849ZM28.481 23.7465C28.481 24.2433 28.6729 24.5934 29.0568 24.7966C29.4407 24.9998 30.0392 25.1015 30.8521 25.1015C31.6651 25.1015 32.2635 24.9998 32.6474 24.7966C33.0314 24.5934 33.2233 24.2433 33.2233 23.7465C33.2233 23.261 33.0257 22.9166 32.6305 22.7134C32.2466 22.4988 31.6538 22.3916 30.8521 22.3916C30.0505 22.3916 29.452 22.4988 29.0568 22.7134C28.6729 22.9166 28.481 23.261 28.481 23.7465ZM27.8035 28.9462C27.8035 30.2334 28.8197 30.877 30.8521 30.877C32.8846 30.877 33.9008 30.2334 33.9008 28.9462C33.9008 27.6477 32.8846 26.9984 30.8521 26.9984C28.8197 26.9984 27.8035 27.6477 27.8035 28.9462Z" fill="white"/>
<defs>
<radialGradient id="paint0_radial_110_707" cx="0" cy="0" r="1" gradientUnits="userSpaceOnUse" gradientTransform="translate(258.327 43.6632) rotate(72.4312) scale(102.005 427.021)">
<stop stop-color="#273DFF"/>
<stop offset="1" stop-color="white"/>
</radialGradient>
<radialGradient id="paint1_radial_110_707" cx="0" cy="0" r="1" gradientUnits="userSpaceOnUse" gradientTransform="translate(258.327 43.6632) rotate(72.4312) scale(102.005 427.021)">
<stop stop-color="#273DFF"/>
<stop offset="1" stop-color="white"/>
</radialGradient>
<radialGradient id="paint2_radial_110_707" cx="0" cy="0" r="1" gradientUnits="userSpaceOnUse" gradientTransform="translate(258.327 43.6632) rotate(72.4312) scale(102.005 427.021)">
<stop stop-color="#273DFF"/>
<stop offset="1" stop-color="white"/>
</radialGradient>
<radialGradient id="paint3_radial_110_707" cx="0" cy="0" r="1" gradientUnits="userSpaceOnUse" gradientTransform="translate(258.327 43.6632) rotate(72.4312) scale(102.005 427.021)">
<stop stop-color="#273DFF"/>
<stop offset="1" stop-color="white"/>
</radialGradient>
<radialGradient id="paint4_radial_110_707" cx="0" cy="0" r="1" gradientUnits="userSpaceOnUse" gradientTransform="translate(258.327 43.6632) rotate(72.4312) scale(102.005 427.021)">
<stop stop-color="#273DFF"/>
<stop offset="1" stop-color="white"/>
</radialGradient>
<radialGradient id="paint5_radial_110_707" cx="0" cy="0" r="1" gradientUnits="userSpaceOnUse" gradientTransform="translate(258.327 43.6632) rotate(72.4312) scale(102.005 427.021)">
<stop stop-color="#273DFF"/>
<stop offset="1" stop-color="white"/>
</radialGradient>
<radialGradient id="paint6_radial_110_707" cx="0" cy="0" r="1" gradientUnits="userSpaceOnUse" gradientTransform="translate(258.327 43.6632) rotate(72.4312) scale(102.005 427.021)">
<stop stop-color="#273DFF"/>
<stop offset="1" stop-color="white"/>
</radialGradient>
<radialGradient id="paint7_radial_110_707" cx="0" cy="0" r="1" gradientUnits="userSpaceOnUse" gradientTransform="translate(258.327 43.6632) rotate(72.4312) scale(102.005 427.021)">
<stop stop-color="#273DFF"/>
<stop offset="1" stop-color="white"/>
</radialGradient>
<radialGradient id="paint8_radial_110_707" cx="0" cy="0" r="1" gradientUnits="userSpaceOnUse" gradientTransform="translate(258.327 43.6632) rotate(72.4312) scale(102.005 427.021)">
<stop stop-color="#273DFF"/>
<stop offset="1" stop-color="white"/>
</radialGradient>
<radialGradient id="paint9_radial_110_707" cx="0" cy="0" r="1" gradientUnits="userSpaceOnUse" gradientTransform="translate(34.9351 43.5134) rotate(85.725) scale(101.902 110.194)">
<stop stop-color="#273DFF"/>
<stop offset="1" stop-color="white"/>
</radialGradient>
</defs>
</svg>
