<svg width="133" height="133" viewBox="0 0 133 133" fill="none" xmlns="http://www.w3.org/2000/svg">
<path d="M77.583 44.3333H22.1663C16.0539 44.3333 11.083 49.3042 11.083 55.4167V110.833C11.083 116.946 16.0539 121.917 22.1663 121.917H77.583C83.6955 121.917 88.6663 116.946 88.6663 110.833V55.4167C88.6663 49.3042 83.6955 44.3333 77.583 44.3333Z" fill="#4F4F4F"/>
<path d="M110.833 11.0833H55.4163C52.4769 11.0833 49.6578 12.251 47.5792 14.3296C45.5007 16.4081 44.333 19.2272 44.333 22.1667V33.25H88.6663C91.6058 33.25 94.4249 34.4177 96.5034 36.4962C98.582 38.5748 99.7497 41.3939 99.7497 44.3333V88.6667H110.833C113.772 88.6667 116.592 87.499 118.67 85.4204C120.749 83.3419 121.916 80.5228 121.916 77.5833V22.1667C121.916 19.2272 120.749 16.4081 118.67 14.3296C116.592 12.251 113.772 11.0833 110.833 11.0833Z" fill="#4F4F4F"/>
</svg>
