<svg width="116" height="116" viewBox="0 0 116 116" fill="none" xmlns="http://www.w3.org/2000/svg">
<g clip-path="url(#clip0_110_708)">
<path d="M57.9997 14.5C59.2316 14.5014 60.4165 14.9731 61.3123 15.8188C62.2081 16.6645 62.7471 17.8203 62.8193 19.0501C62.8915 20.2799 62.4914 21.4908 61.7007 22.4355C60.91 23.3802 59.7885 23.9873 58.5652 24.1328L57.9997 24.1667H33.833C32.6492 24.1668 31.5065 24.6015 30.6219 25.3881C29.7372 26.1748 29.172 27.2588 29.0335 28.4345L28.9997 29V87C28.9998 88.1838 29.4345 89.3265 30.2211 90.2111C31.0078 91.0958 32.0918 91.661 33.2675 91.7995L33.833 91.8333H55.583C56.8149 91.8347 57.9998 92.3064 58.8956 93.1521C59.7914 93.9978 60.3305 95.1536 60.4027 96.3834C60.4749 97.6132 60.0748 98.8242 59.2841 99.7689C58.4934 100.714 57.3718 101.321 56.1485 101.466L55.583 101.5H33.833C30.1345 101.5 26.5757 100.087 23.8847 97.5498C21.1938 95.0125 19.5742 91.5428 19.3572 87.8507L19.333 87V29C19.3328 25.3015 20.7459 21.7427 23.2832 19.0517C25.8205 16.3608 29.2902 14.7411 32.9823 14.5242L33.833 14.5H57.9997ZM85.5835 40.9093L99.2522 54.5828C100.158 55.4892 100.667 56.7184 100.667 58C100.667 59.2816 100.158 60.5108 99.2522 61.4172L85.5835 75.0907C84.6766 75.997 83.4468 76.5059 82.1646 76.5054C80.8825 76.5049 79.653 75.9952 78.7468 75.0882C77.8405 74.1813 77.3316 72.9515 77.332 71.6694C77.3325 70.3872 77.8422 69.1578 78.7492 68.2515L84.1673 62.8333H57.9997C56.7178 62.8333 55.4884 62.3241 54.582 61.4177C53.6756 60.5113 53.1663 59.2819 53.1663 58C53.1663 56.7181 53.6756 55.4887 54.582 54.5823C55.4884 53.6759 56.7178 53.1667 57.9997 53.1667H84.1673L78.7492 47.7485C77.8422 46.8422 77.3325 45.6128 77.332 44.3306C77.3316 43.0485 77.8405 41.8187 78.7468 40.9118C79.653 40.0048 80.8825 39.4951 82.1646 39.4946C83.4468 39.4942 84.6766 40.003 85.5835 40.9093Z" fill="white"/>
</g>
<defs>
<clipPath id="clip0_110_708">
<rect width="116" height="116" fill="white"/>
</clipPath>
</defs>
</svg>
