<svg width="100" height="100" viewBox="0 0 100 100" fill="none" xmlns="http://www.w3.org/2000/svg">
<path d="M66.7496 73.375C59.2143 79.2239 49.7335 81.9814 40.2368 81.0862C30.7401 80.1911 21.9414 75.7105 15.6318 68.5567C9.32225 61.4029 5.97599 52.1134 6.27421 42.5793C6.57243 33.0452 10.4927 23.983 17.2371 17.2375C23.9826 10.4932 33.0447 6.57288 42.5788 6.27466C52.113 5.97644 61.4024 9.3227 68.5562 15.6323C75.7101 21.9419 80.1906 30.7405 81.0858 40.2372C81.9809 49.7339 79.2234 59.2148 73.3746 66.75L92.3746 85.75C92.9916 86.323 93.4427 87.0517 93.6802 87.8595C93.9178 88.6673 93.9331 89.5243 93.7246 90.34C93.516 91.1558 93.0912 91.9002 92.4951 92.4949C91.8989 93.0895 91.1534 93.5123 90.3371 93.7188C89.5222 93.9276 88.6661 93.913 87.8589 93.6766C87.0516 93.4401 86.3229 92.9905 85.7496 92.375L66.7496 73.375ZM71.8746 43.75C71.9301 40.0225 71.244 36.3212 69.856 32.8614C68.468 29.4015 66.4058 26.2522 63.7896 23.5966C61.1733 20.941 58.055 18.8322 54.6163 17.3927C51.1775 15.9533 47.4868 15.212 43.7589 15.212C40.031 15.212 36.3404 15.9533 32.9016 17.3927C29.4628 18.8322 26.3446 20.941 23.7283 23.5966C21.112 26.2522 19.0499 29.4015 17.6619 32.8614C16.2739 36.3212 15.5877 40.0225 15.6433 43.75C15.7534 51.1341 18.764 58.1785 24.0247 63.3614C29.2855 68.5443 36.374 71.4496 43.7589 71.4496C51.1439 71.4496 58.2324 68.5443 63.4931 63.3614C68.7539 58.1785 71.7645 51.1341 71.8746 43.75Z" fill="white"/>
</svg>
