<svg width="50" height="50" viewBox="0 0 50 50" fill="none" xmlns="http://www.w3.org/2000/svg">
<g id="Group 1321315571">
<g id="path16">
<path d="M5.64674 30.6467L11.2984 25L5.64674 19.3533L0 25L5.64674 30.6467Z" fill="#F0B90B"/>
<path d="M34.6766 20.9701L25 11.2886L15.3234 20.9701L9.67663 15.3234L25 0L40.3234 15.3234L34.6766 20.9701Z" fill="#F0B90B"/>
<path d="M38.7114 25L44.3581 19.3533L50 25L44.3581 30.6467L38.7114 25Z" fill="#F0B90B"/>
<path d="M15.3234 29.0348L25 38.7114L34.6766 29.0348L40.3234 34.6766L25 50L9.67663 34.6766L15.3234 29.0348Z" fill="#F0B90B"/>
<path d="M30.6467 25L25 30.6467L19.3533 25L25 19.3533L30.6467 25Z" fill="#F0B90B"/>
</g>
</g>
</svg>
