<svg xmlns="http://www.w3.org/2000/svg" width="18" height="19" viewBox="0 0 18 19" fill="none">
<path fill-rule="evenodd" clip-rule="evenodd" d="M5.66675 0.916687C6.12699 0.916687 6.50008 1.28978 6.50008 1.75002V2.16669H11.5001V1.75002C11.5001 1.28978 11.8732 0.916687 12.3334 0.916687C12.7937 0.916687 13.1667 1.28978 13.1667 1.75002V2.16804C13.563 2.17076 13.9093 2.17895 14.2099 2.20352C14.6784 2.24179 15.1089 2.32392 15.5134 2.53C16.1406 2.84958 16.6505 3.35951 16.9701 3.98672C17.1762 4.39116 17.2583 4.82175 17.2966 5.29017C17.3334 5.74116 17.3334 6.29478 17.3334 6.96558V14.0345C17.3334 14.7053 17.3334 15.2589 17.2966 15.7099C17.2583 16.1783 17.1762 16.6089 16.9701 17.0133C16.6505 17.6405 16.1406 18.1505 15.5134 18.47C15.1089 18.6761 14.6784 18.7583 14.2099 18.7965C13.7589 18.8334 13.2053 18.8334 12.5345 18.8334H5.46565C4.79485 18.8334 4.24122 18.8334 3.79023 18.7965C3.32181 18.7583 2.89123 18.6761 2.48678 18.47C1.85957 18.1505 1.34964 17.6405 1.03006 17.0133C0.823985 16.6089 0.741848 16.1783 0.703577 15.7099C0.666729 15.2589 0.666738 14.7052 0.666748 14.0344V6.9656C0.666738 6.2948 0.666729 5.74116 0.703577 5.29017C0.741848 4.82175 0.823985 4.39117 1.03006 3.98672C1.34964 3.35951 1.85957 2.84958 2.48678 2.53C2.89123 2.32392 3.32181 2.24179 3.79023 2.20352C4.0909 2.17895 4.43719 2.17076 4.83342 2.16804V1.75002C4.83342 1.28978 5.20651 0.916687 5.66675 0.916687ZM4.83342 3.83482C4.46214 3.83743 4.17061 3.84466 3.92595 3.86465C3.5606 3.8945 3.37376 3.9486 3.24343 4.01501C2.92983 4.1748 2.67486 4.42977 2.51507 4.74337C2.44866 4.8737 2.39456 5.06054 2.36471 5.42589C2.33406 5.80096 2.33342 6.2862 2.33342 7.00002V7.16669H15.6667V7.00002C15.6667 6.2862 15.6661 5.80096 15.6355 5.42589C15.6056 5.06054 15.5515 4.8737 15.4851 4.74337C15.3253 4.42977 15.0703 4.1748 14.7567 4.01501C14.6264 3.9486 14.4396 3.8945 14.0742 3.86465C13.8296 3.84466 13.538 3.83743 13.1667 3.83482V4.25002C13.1667 4.71026 12.7937 5.08335 12.3334 5.08335C11.8732 5.08335 11.5001 4.71026 11.5001 4.25002V3.83335H6.50008V4.25002C6.50008 4.71026 6.12699 5.08335 5.66675 5.08335C5.20651 5.08335 4.83342 4.71026 4.83342 4.25002V3.83482ZM15.6667 8.83335H2.33342V14C2.33342 14.7138 2.33406 15.1991 2.36471 15.5742C2.39456 15.9395 2.44866 16.1263 2.51507 16.2567C2.67486 16.5703 2.92983 16.8252 3.24343 16.985C3.37376 17.0514 3.5606 17.1055 3.92595 17.1354C4.30102 17.166 4.78627 17.1667 5.50008 17.1667H12.5001C13.2139 17.1667 13.6991 17.166 14.0742 17.1354C14.4396 17.1055 14.6264 17.0514 14.7567 16.985C15.0703 16.8252 15.3253 16.5703 15.4851 16.2567C15.5515 16.1263 15.6056 15.9395 15.6355 15.5742C15.6661 15.1991 15.6667 14.7138 15.6667 14V8.83335Z" fill="#3244E6"/>
</svg>