<svg xmlns="http://www.w3.org/2000/svg" width="20" height="21" viewBox="0 0 20 21" fill="none">
<path fill-rule="evenodd" clip-rule="evenodd" d="M5.7587 20.5H14.2413C15.0463 20.5 15.7106 20.5 16.2518 20.4558C16.8139 20.4099 17.3306 20.3113 17.816 20.064C18.5686 19.6805 19.1805 19.0686 19.564 18.316C19.8113 17.8306 19.9099 17.3139 19.9558 16.7518C20 16.2106 20 15.5463 20 14.7413V13.5C20 12.9477 19.5523 12.5 19 12.5C18.4477 12.5 18 12.9477 18 13.5V14.7C18 15.5566 17.9992 16.1389 17.9624 16.589C17.9266 17.0274 17.8617 17.2516 17.782 17.408C17.5903 17.7843 17.2843 18.0903 16.908 18.282C16.7516 18.3617 16.5274 18.4266 16.089 18.4624C15.6389 18.4992 15.0566 18.5 14.2 18.5H5.8C4.94342 18.5 4.36113 18.4992 3.91104 18.4624C3.47262 18.4266 3.24842 18.3617 3.09202 18.282C2.7157 18.0903 2.40973 17.7843 2.21799 17.408C2.1383 17.2516 2.07337 17.0274 2.03755 16.589C2.00078 16.1389 2 15.5566 2 14.7V13.5C2 12.9477 1.55229 12.5 1 12.5C0.447716 12.5 9.08129e-07 12.9477 9.08129e-07 13.5L4.31292e-07 14.7413C-1.23241e-05 15.5463 -2.28137e-05 16.2106 0.0441945 16.7518C0.0901197 17.3139 0.188684 17.8306 0.435975 18.316C0.819468 19.0686 1.43139 19.6805 2.18404 20.064C2.66937 20.3113 3.18608 20.4099 3.74817 20.4558C4.28937 20.5 4.95373 20.5 5.7587 20.5ZM9.29289 14.2071C9.68342 14.5976 10.3166 14.5976 10.7071 14.2071L15.7071 9.20711C16.0976 8.81658 16.0976 8.18342 15.7071 7.79289C15.3166 7.40237 14.6834 7.40237 14.2929 7.79289L11 11.0858V1.5C11 0.947716 10.5523 0.5 10 0.5C9.44772 0.5 9 0.947716 9 1.5V11.0858L5.70711 7.79289C5.31658 7.40237 4.68342 7.40237 4.29289 7.79289C3.90237 8.18342 3.90237 8.81658 4.29289 9.20711L9.29289 14.2071Z" fill="#4F4F4F"/>
</svg>