<svg xmlns="http://www.w3.org/2000/svg" width="164" height="164" viewBox="0 0 164 164" fill="none">
<path fill-rule="evenodd" clip-rule="evenodd" d="M80.5644 41.3164C81.4753 40.8945 82.5249 40.8945 83.4358 41.3164L117.602 57.1409C118.811 57.7003 119.583 58.9102 119.583 60.2412V99.8029C119.583 101.022 118.934 102.149 117.878 102.76L83.7118 122.54C82.6533 123.153 81.3468 123.153 80.2883 122.54L46.1215 102.76C45.0664 102.149 44.4167 101.022 44.4167 99.8029V60.2412C44.4167 58.9102 45.1897 57.7003 46.3975 57.1409L80.5644 41.3164ZM51.2501 65.7782L78.5834 79.4928V113.657L51.2501 97.8328V65.7782ZM85.4167 113.657L112.75 97.8328V65.7782L85.4167 79.4928V113.657ZM82.0001 73.5622L108.303 60.3643L82.0001 48.182L55.6973 60.3643L82.0001 73.5622Z" fill="#303030"/>
<path fill-rule="evenodd" clip-rule="evenodd" d="M17.0833 20.5C17.0833 18.6131 18.613 17.0833 20.4999 17.0833H40.9999C42.8869 17.0833 44.4166 18.6131 44.4166 20.5C44.4166 22.387 42.8869 23.9167 40.9999 23.9167H23.9166V41C23.9166 42.887 22.3869 44.4167 20.4999 44.4167C18.613 44.4167 17.0833 42.887 17.0833 41V20.5Z" fill="#303030"/>
<path fill-rule="evenodd" clip-rule="evenodd" d="M143.5 17.0833C145.387 17.0833 146.917 18.6131 146.917 20.5V41C146.917 42.887 145.387 44.4167 143.5 44.4167C141.613 44.4167 140.083 42.887 140.083 41V23.9167H123C121.113 23.9167 119.583 22.387 119.583 20.5C119.583 18.6131 121.113 17.0833 123 17.0833H143.5Z" fill="#303030"/>
<path fill-rule="evenodd" clip-rule="evenodd" d="M20.4999 146.917C18.613 146.917 17.0833 145.387 17.0833 143.5V123C17.0833 121.113 18.613 119.583 20.4999 119.583C22.3869 119.583 23.9166 121.113 23.9166 123V140.083H40.9999C42.8869 140.083 44.4166 141.613 44.4166 143.5C44.4166 145.387 42.8869 146.917 40.9999 146.917H20.4999Z" fill="#303030"/>
<path fill-rule="evenodd" clip-rule="evenodd" d="M146.917 143.5C146.917 145.387 145.387 146.917 143.5 146.917H123C121.113 146.917 119.583 145.387 119.583 143.5C119.583 141.613 121.113 140.083 123 140.083H140.083V123C140.083 121.113 141.613 119.583 143.5 119.583C145.387 119.583 146.917 121.113 146.917 123V143.5Z" fill="#303030"/>
</svg>