<svg width="50" height="50" viewBox="0 0 50 50" fill="none" xmlns="http://www.w3.org/2000/svg">
<g id="ethereum-eth 1" clip-path="url(#clip0_41_1002)">
<g id="Group">
<path id="Vector" d="M25 50C38.8071 50 50 38.8071 50 25C50 11.1929 38.8071 0 25 0C11.1929 0 0 11.1929 0 25C0 38.8071 11.1929 50 25 50Z" fill="#627EEA"/>
<g id="Group_2">
<path id="Vector_2" d="M25.7781 6.25V20.1094L37.4921 25.3437L25.7781 6.25Z" fill="white" fill-opacity="0.602"/>
<path id="Vector_3" d="M25.7781 6.25L14.0625 25.3437L25.7781 20.1094V6.25Z" fill="white"/>
<path id="Vector_4" d="M25.7781 34.325V43.7422L37.5 27.525L25.7781 34.325Z" fill="white" fill-opacity="0.602"/>
<path id="Vector_5" d="M25.7781 43.7422V34.3234L14.0625 27.525L25.7781 43.7422Z" fill="white"/>
<path id="Vector_6" d="M25.7781 32.1453L37.4921 25.3437L25.7781 20.1125V32.1453Z" fill="white" fill-opacity="0.2"/>
<path id="Vector_7" d="M14.0625 25.3437L25.7781 32.1453V20.1125L14.0625 25.3437Z" fill="white" fill-opacity="0.602"/>
</g>
</g>
</g>
<defs>
<clipPath id="clip0_41_1002">
<rect width="50" height="50" fill="white"/>
</clipPath>
</defs>
</svg>
