<svg width="44" height="44" viewBox="0 0 44 44" fill="none" xmlns="http://www.w3.org/2000/svg">
<rect x="1.15642" y="1.02599" width="42.2107" height="42.2107" rx="4.8016" stroke="url(#paint0_radial_3_131)" stroke-width="0.88559"/>
<path d="M10.1219 26.9081C10.1219 24.7642 10.7706 22.9959 12.0678 21.603C13.3651 20.1965 15.0993 19.4933 17.2705 19.4933C19.2232 19.4933 20.8072 20.0122 22.0225 21.05C23.2378 22.0741 23.9548 23.4806 24.1732 25.2695H21.5309C21.3671 24.1498 20.9096 23.2895 20.1586 22.6886C19.4212 22.0878 18.4721 21.7874 17.3114 21.7874C15.8776 21.7874 14.7579 22.2448 13.9522 23.1597C13.1602 24.061 12.7642 25.3105 12.7642 26.9081C12.7642 28.5058 13.1602 29.7621 13.9522 30.677C14.7579 31.5919 15.8776 32.0493 17.3114 32.0493C18.4721 32.0493 19.4212 31.7489 20.1586 31.1481C20.9096 30.5336 21.3671 29.6665 21.5309 28.5468H24.1732C23.9548 30.3493 23.2378 31.7694 22.0225 32.8072C20.8072 33.8314 19.2232 34.3434 17.2705 34.3434C15.0993 34.3434 13.3651 33.647 12.0678 32.2542C10.7706 30.8477 10.1219 29.0657 10.1219 26.9081ZM25.7784 34.1386V19.6981H35.7536V21.9922H28.4207V26.7852L35.0777 26.3756V28.7106L28.4207 29.1203V34.1386H25.7784Z" fill="white"/>
<path d="M13.3031 13.3661C13.3031 13.8638 13.2488 14.3129 13.1401 14.7133C13.0371 15.108 12.8741 15.457 12.651 15.7602C12.4336 16.0634 12.1361 16.2894 11.7585 16.4381C11.381 16.5811 10.9405 16.6297 10.4371 16.584L8.52352 16.4124V15.4513L10.4371 15.6229C11.0377 15.6744 11.5011 15.5571 11.8272 15.2711C12.159 14.9851 12.3821 14.5417 12.4965 13.941L12.7797 13.2803H12.4965C12.4279 13.7551 12.1933 14.1355 11.7929 14.4216C11.3981 14.7019 10.9176 14.842 10.3513 14.842C9.63619 14.842 9.0727 14.6447 8.66081 14.25C8.25465 13.8495 8.05156 13.3118 8.05156 12.6367C8.05156 11.9617 8.28611 11.4154 8.7552 10.9978C9.23002 10.5744 9.86787 10.3628 10.6688 10.3628C11.4868 10.3628 12.1304 10.6173 12.5995 11.1265C13.0686 11.6299 13.3031 12.3764 13.3031 13.3661ZM12.1962 12.5509C12.1962 12.2191 12.0617 11.9331 11.7929 11.6928C11.524 11.4468 11.1493 11.3238 10.6688 11.3238C9.66193 11.3238 9.15851 11.7615 9.15851 12.6367C9.15851 13.4662 9.63333 13.881 10.583 13.881C11.0978 13.881 11.4954 13.7666 11.7757 13.5377C12.056 13.3032 12.1962 12.9742 12.1962 12.5509ZM13.6932 14.8163C13.6932 14.3586 13.8362 14.0154 14.1222 13.7866C14.414 13.5578 14.8173 13.4004 15.3321 13.3146V13.0229C14.4683 12.8799 14.0364 12.4651 14.0364 11.7786C14.0364 11.4411 14.148 11.1637 14.3711 10.9463C14.5999 10.7289 14.8802 10.5773 15.212 10.4915C15.5438 10.4057 15.9214 10.3628 16.3447 10.3628C16.768 10.3628 17.1456 10.4057 17.4774 10.4915C17.8092 10.5773 18.0866 10.7317 18.3097 10.9549C18.5386 11.1722 18.653 11.4468 18.653 11.7786C18.653 12.4651 18.2182 12.8799 17.3487 13.0229V13.3146C18.447 13.4977 18.9962 13.9982 18.9962 14.8163C18.9962 15.3941 18.7588 15.8346 18.284 16.1378C17.8149 16.4352 17.1685 16.584 16.3447 16.584C15.5152 16.584 14.8659 16.4352 14.3968 16.1378C13.9277 15.8346 13.6932 15.3941 13.6932 14.8163ZM15.1433 12.0103C15.1433 12.262 15.2406 12.4394 15.4351 12.5423C15.6296 12.6453 15.9328 12.6968 16.3447 12.6968C16.7566 12.6968 17.0598 12.6453 17.2543 12.5423C17.4488 12.4394 17.546 12.262 17.546 12.0103C17.546 11.7643 17.4459 11.5898 17.2457 11.4869C17.0512 11.3782 16.7509 11.3238 16.3447 11.3238C15.9385 11.3238 15.6353 11.3782 15.4351 11.4869C15.2406 11.5898 15.1433 11.7643 15.1433 12.0103ZM14.8001 14.6447C14.8001 15.2968 15.315 15.6229 16.3447 15.6229C17.3744 15.6229 17.8893 15.2968 17.8893 14.6447C17.8893 13.9868 17.3744 13.6579 16.3447 13.6579C15.315 13.6579 14.8001 13.9868 14.8001 14.6447Z" fill="white"/>
<defs>
<radialGradient id="paint0_radial_3_131" cx="0" cy="0" r="1" gradientUnits="userSpaceOnUse" gradientTransform="translate(18.4133 22.1314) rotate(85.725) scale(51.6278 55.8293)">
<stop stop-color="#273DFF"/>
<stop offset="1" stop-color="white"/>
</radialGradient>
</defs>
</svg>
