<svg xmlns="http://www.w3.org/2000/svg" width="25" height="25" viewBox="0 0 25 25" fill="none">
<g clip-path="url(#clip0_3_197)">
<path d="M12.5098 3.06836C12.7646 3.06864 13.0098 3.16624 13.1951 3.34121C13.3805 3.51618 13.492 3.75531 13.5069 4.00975C13.5219 4.2642 13.4391 4.51474 13.2755 4.71019C13.1119 4.90564 12.8799 5.03126 12.6268 5.06136L12.5098 5.06836H7.50977C7.26483 5.06839 7.02843 5.15832 6.84539 5.32107C6.66236 5.48383 6.54542 5.70811 6.51677 5.95136L6.50977 6.06836V18.0684C6.5098 18.3133 6.59972 18.5497 6.76248 18.7327C6.92524 18.9158 7.14951 19.0327 7.39277 19.0614L7.50977 19.0684H12.0098C12.2646 19.0686 12.5098 19.1662 12.6951 19.3412C12.8805 19.5162 12.992 19.7553 13.0069 20.0098C13.0219 20.2642 12.9391 20.5147 12.7755 20.7102C12.6119 20.9056 12.3799 21.0313 12.1268 21.0614L12.0098 21.0684H7.50977C6.74455 21.0684 6.00825 20.776 5.4515 20.2511C4.89476 19.7261 4.55966 19.0083 4.51477 18.2444L4.50977 18.0684V6.06836C4.50972 5.30315 4.80209 4.56684 5.32705 4.0101C5.85201 3.45335 6.56987 3.11825 7.33377 3.07336L7.50977 3.06836H12.5098ZM18.2168 8.53236L21.0448 11.3614C21.2322 11.5489 21.3376 11.8032 21.3376 12.0684C21.3376 12.3335 21.2322 12.5878 21.0448 12.7754L18.2168 15.6044C18.0291 15.7919 17.7747 15.8972 17.5094 15.8971C17.2441 15.897 16.9898 15.7915 16.8023 15.6039C16.6148 15.4162 16.5095 15.1618 16.5096 14.8965C16.5097 14.6312 16.6151 14.3769 16.8028 14.1894L17.9238 13.0684H12.5098C12.2445 13.0684 11.9902 12.963 11.8027 12.7755C11.6151 12.5879 11.5098 12.3336 11.5098 12.0684C11.5098 11.8031 11.6151 11.5488 11.8027 11.3613C11.9902 11.1737 12.2445 11.0684 12.5098 11.0684H17.9238L16.8028 9.94736C16.6151 9.75985 16.5097 9.50548 16.5096 9.24021C16.5095 8.97494 16.6148 8.7205 16.8023 8.53286C16.9898 8.34522 17.2441 8.23975 17.5094 8.23966C17.7747 8.23956 18.0291 8.34485 18.2168 8.53236Z" fill="white"/>
</g>
<defs>
<clipPath id="clip0_3_197">
<rect width="24" height="24" fill="white" transform="translate(0.509766 0.0683594)"/>
</clipPath>
</defs>
</svg>