<svg width="50" height="50" viewBox="0 0 50 50" fill="none" xmlns="http://www.w3.org/2000/svg">
<circle cx="25" cy="25" r="25" fill="white"/>
<path fill-rule="evenodd" clip-rule="evenodd" d="M35.5082 30.732C35.6522 30.648 36.5762 29.52 36.5762 29.52V27.24L35.4962 25.8L33.2522 24.576L29.9402 26.484C29.9402 26.484 29.3162 26.94 29.7722 27.24C30.2282 27.54 31.4882 28.332 31.4882 28.332L21.5042 34.092L21.4202 32.052C21.4202 32.052 21.2642 31.38 20.6642 31.728C20.0642 32.076 17.4722 33.528 17.4722 33.528L17.4842 37.332C17.4842 37.776 18.6722 38.928 19.9322 38.976C21.1802 39.024 21.5042 38.844 21.9242 38.688L35.5202 30.72L35.5082 30.732Z" fill="url(#paint0_linear_41_1110)"/>
<path fill-rule="evenodd" clip-rule="evenodd" d="M35.5082 22.188L36.5762 20.928V18.396L35.5202 17.172L21.3842 9L19.2242 9.048C19.2242 9.048 17.4002 9.432 17.4122 10.872L17.4482 14.364L20.6162 16.2C20.6162 16.2 21.3842 16.572 21.3602 15.756C21.3242 14.952 21.4202 13.764 21.4202 13.764L31.5242 19.596L21.5042 25.38V22.596L22.7762 23.208C22.7762 23.208 23.1962 23.436 23.3762 23.328C23.5562 23.22 26.4242 21.564 26.4242 21.564C26.4242 21.564 26.7842 21.288 26.7482 21.06C26.7242 20.832 26.5442 20.628 26.5442 20.628L18.0722 15.732C18.0722 15.732 17.7722 15.552 17.5442 15.684C17.3282 15.816 17.4722 32.616 17.4722 32.616L35.5082 22.188Z" fill="url(#paint1_linear_41_1110)"/>
<path fill-rule="evenodd" clip-rule="evenodd" d="M35.5082 30.732C35.6522 30.648 36.5762 29.52 36.5762 29.52V27.24L35.4962 25.8L33.2522 24.576L29.9402 26.484C29.9402 26.484 29.3162 26.94 29.7722 27.24C30.2282 27.54 31.4882 28.332 31.4882 28.332L21.5042 34.092L21.4202 32.052C21.4202 32.052 21.2642 31.38 20.6642 31.728C20.0642 32.076 17.4722 33.528 17.4722 33.528L17.4842 37.332C17.4842 37.776 18.6722 38.928 19.9322 38.976C21.1802 39.024 21.5042 38.844 21.9242 38.688L35.5202 30.72L35.5082 30.732Z" fill="url(#paint2_linear_41_1110)"/>
<path fill-rule="evenodd" clip-rule="evenodd" d="M35.5082 22.188L36.5762 20.928V18.396L35.5202 17.172L21.3842 9L19.2242 9.048C19.2242 9.048 17.4002 9.432 17.4122 10.872L17.4482 14.364L20.6162 16.2C20.6162 16.2 21.3842 16.572 21.3602 15.756C21.3242 14.952 21.4202 13.764 21.4202 13.764L31.5242 19.596L21.5042 25.38V22.596L22.7762 23.208C22.7762 23.208 23.1962 23.436 23.3762 23.328C23.5562 23.22 26.4242 21.564 26.4242 21.564C26.4242 21.564 26.7842 21.288 26.7482 21.06C26.7242 20.832 26.5442 20.628 26.5442 20.628L18.0722 15.732C18.0722 15.732 17.7722 15.552 17.5442 15.684C17.3282 15.816 17.4722 32.616 17.4722 32.616L35.5082 22.188Z" fill="url(#paint3_linear_41_1110)"/>
<defs>
<linearGradient id="paint0_linear_41_1110" x1="17.4701" y1="37.3953" x2="32.101" y2="22.5492" gradientUnits="userSpaceOnUse">
<stop stop-color="#7F0AE8"/>
<stop offset="1" stop-color="#11DBB7"/>
</linearGradient>
<linearGradient id="paint1_linear_41_1110" x1="17.1673" y1="20.5523" x2="33.7836" y2="21.7859" gradientUnits="userSpaceOnUse">
<stop stop-color="#8109EA"/>
<stop offset="0.4392" stop-color="#750AE8"/>
<stop offset="1" stop-color="#3510DD"/>
</linearGradient>
<linearGradient id="paint2_linear_41_1110" x1="17.4701" y1="37.3953" x2="32.101" y2="22.5492" gradientUnits="userSpaceOnUse">
<stop stop-color="#7F0AE8"/>
<stop offset="1" stop-color="#11DBB7"/>
</linearGradient>
<linearGradient id="paint3_linear_41_1110" x1="17.1673" y1="20.5523" x2="33.7836" y2="21.7859" gradientUnits="userSpaceOnUse">
<stop stop-color="#8109EA"/>
<stop offset="0.4392" stop-color="#750AE8"/>
<stop offset="1" stop-color="#3510DD"/>
</linearGradient>
</defs>
</svg>
