<svg width="26" height="26" viewBox="0 0 26 26" fill="none" xmlns="http://www.w3.org/2000/svg">
<g id="material-symbols:lock">
<path id="Vector" d="M6.49992 23.8333C5.90409 23.8333 5.39384 23.621 4.96917 23.1963C4.5445 22.7716 4.33253 22.2618 4.33325 21.6666V10.8333C4.33325 10.2375 4.54559 9.72723 4.97025 9.30256C5.39492 8.8779 5.90481 8.66593 6.49992 8.66665H7.58325V6.49998C7.58325 5.00137 8.11156 3.72376 9.16817 2.66715C10.2248 1.61054 11.502 1.08259 12.9999 1.08331C14.4985 1.08331 15.7761 1.61162 16.8328 2.66823C17.8894 3.72484 18.4173 5.00209 18.4166 6.49998V8.66665H19.4999C20.0958 8.66665 20.606 8.87898 21.0307 9.30365C21.4553 9.72831 21.6673 10.2382 21.6666 10.8333V21.6666C21.6666 22.2625 21.4543 22.7727 21.0296 23.1974C20.6049 23.6221 20.095 23.834 19.4999 23.8333H6.49992ZM12.9999 18.4166C13.5958 18.4166 14.106 18.2043 14.5307 17.7796C14.9553 17.355 15.1673 16.8451 15.1666 16.25C15.1666 15.6541 14.9543 15.1439 14.5296 14.7192C14.1049 14.2946 13.595 14.0826 12.9999 14.0833C12.4041 14.0833 11.8938 14.2956 11.4692 14.7203C11.0445 15.145 10.8325 15.6549 10.8333 16.25C10.8333 16.8458 11.0456 17.3561 11.4703 17.7807C11.8949 18.2054 12.4048 18.4174 12.9999 18.4166ZM9.74992 8.66665H16.2499V6.49998C16.2499 5.5972 15.9339 4.82984 15.302 4.1979C14.6701 3.56595 13.9027 3.24998 12.9999 3.24998C12.0971 3.24998 11.3298 3.56595 10.6978 4.1979C10.0659 4.82984 9.74992 5.5972 9.74992 6.49998V8.66665Z" fill="#ADADAD"/>
</g>
</svg>
