<svg xmlns="http://www.w3.org/2000/svg" width="18" height="18" viewBox="0 0 18 18" fill="none">
<path fill-rule="evenodd" clip-rule="evenodd" d="M12.6265 0.797296C13.2391 0.543561 13.9274 0.543561 14.5399 0.797296C14.8115 0.909799 15.0351 1.07503 15.2427 1.25612C15.4399 1.42811 15.6629 1.65114 15.9214 1.90961L16.5902 2.57846C16.8487 2.83693 17.0717 3.05995 17.2437 3.25714C17.4248 3.46475 17.5901 3.68832 17.7026 3.95993C17.9563 4.5725 17.9563 5.26078 17.7026 5.87335C17.5901 6.14495 17.4248 6.36853 17.2437 6.57614C17.0717 6.77333 16.8487 6.99635 16.5902 7.25483L6.95573 16.8893C6.94941 16.8956 6.94294 16.9021 6.93631 16.9088C6.86357 16.9818 6.77206 17.0736 6.66516 17.1516C6.5257 17.2534 6.37127 17.3328 6.20741 17.3872C6.0818 17.4288 5.95388 17.4499 5.8522 17.4667C5.84294 17.4682 5.83389 17.4697 5.82509 17.4712L3.78014 17.812C3.41801 17.8724 3.10127 17.9252 2.84004 17.9487C2.56945 17.9731 2.26958 17.9765 1.96812 17.8799C1.32741 17.6746 0.825289 17.1725 0.619962 16.5317C0.523354 16.2303 0.526724 15.9304 0.551137 15.6598C0.574706 15.3986 0.627511 15.0818 0.687883 14.7197L1.0287 12.6748C1.03017 12.666 1.03166 12.6569 1.03319 12.6476C1.04995 12.546 1.07104 12.418 1.1127 12.2924C1.16704 12.1286 1.24651 11.9742 1.34826 11.8347C1.42626 11.7278 1.51809 11.6363 1.59108 11.5636C1.59774 11.5569 1.60424 11.5504 1.61055 11.5441L11.245 1.90965C11.5035 1.65116 11.7265 1.42812 11.9237 1.25612C12.1313 1.07503 12.3549 0.909799 12.6265 0.797296ZM13.9021 2.33709C13.6979 2.25252 13.4685 2.25252 13.2643 2.33709C13.2296 2.35146 13.1628 2.38694 13.0193 2.51212C12.8701 2.64224 12.6873 2.82437 12.4047 3.10699L11.8451 3.66664L14.8332 6.65479L15.3929 6.09515C15.6755 5.81253 15.8576 5.62975 15.9877 5.48058C16.1129 5.33707 16.1484 5.27022 16.1628 5.23554C16.2473 5.03135 16.2473 4.80193 16.1628 4.59774C16.1484 4.56306 16.1129 4.49621 15.9877 4.35269C15.8576 4.20352 15.6755 4.02075 15.3929 3.73813L14.7617 3.10699C14.4791 2.82437 14.2963 2.64224 14.1472 2.51212C14.0037 2.38694 13.9368 2.35146 13.9021 2.33709ZM13.6547 7.83331L10.6666 4.84515L2.78906 12.7226C2.73894 12.7728 2.71427 12.7976 2.69681 12.8161C2.69636 12.8166 2.69592 12.8171 2.69551 12.8175C2.69539 12.8181 2.69526 12.8187 2.69514 12.8194C2.69018 12.8444 2.68435 12.8789 2.67269 12.9488L2.33676 14.9644C2.27008 15.3645 2.2283 15.6185 2.21106 15.8096C2.19705 15.9649 2.20628 16.0181 2.20764 16.0247C2.24886 16.1516 2.34831 16.251 2.47514 16.2922C2.48181 16.2936 2.535 16.3028 2.69028 16.2888C2.88134 16.2716 3.1354 16.2298 3.5355 16.1631L5.55109 15.8272C5.621 15.8155 5.65549 15.8097 5.68049 15.8047C5.68114 15.8046 5.68176 15.8045 5.68236 15.8044C5.6828 15.8039 5.68326 15.8035 5.68374 15.803C5.7023 15.7856 5.7271 15.7609 5.77722 15.7108L13.6547 7.83331Z" fill="#3244E6"/>
</svg>