<svg width="50" height="50" viewBox="0 0 50 50" fill="none" xmlns="http://www.w3.org/2000/svg">
<circle cx="25" cy="25" r="25" fill="#8247E5"/>
<g clip-path="url(#clip0_41_1017)">
<path d="M32.6562 19.9164C32.1094 19.606 31.4062 19.606 30.7812 19.9164L26.4062 22.4776L23.4375 24.1075L19.1406 26.6687C18.5937 26.9791 17.8906 26.9791 17.2656 26.6687L13.9062 24.6508C13.3594 24.3403 12.9687 23.7194 12.9687 23.0209V19.1403C12.9687 18.5194 13.2812 17.8985 13.9062 17.5105L17.2656 15.5702C17.8125 15.2597 18.5156 15.2597 19.1406 15.5702L22.5 17.5881C23.0469 17.8985 23.4375 18.5194 23.4375 19.2179V21.7791L26.4062 20.0716V17.4328C26.4062 16.8119 26.0937 16.1911 25.4687 15.803L19.2187 12.1552C18.6719 11.8448 17.9687 11.8448 17.3437 12.1552L10.9375 15.8806C10.3125 16.1911 10 16.8119 10 17.4328V24.7284C10 25.3493 10.3125 25.9702 10.9375 26.3582L17.2656 30.006C17.8125 30.3164 18.5156 30.3164 19.1406 30.006L23.4375 27.5224L26.4062 25.8149L30.7031 23.3313C31.25 23.0209 31.9531 23.0209 32.5781 23.3313L35.9375 25.2716C36.4844 25.5821 36.875 26.203 36.875 26.9015V30.7821C36.875 31.403 36.5625 32.0239 35.9375 32.4119L32.6562 34.3522C32.1094 34.6627 31.4062 34.6627 30.7812 34.3522L27.4219 32.4119C26.875 32.1015 26.4844 31.4806 26.4844 30.7821V28.2985L23.5156 30.006V32.5672C23.5156 33.1881 23.8281 33.809 24.4531 34.197L30.7812 37.8448C31.3281 38.1552 32.0312 38.1552 32.6562 37.8448L38.9844 34.197C39.5312 33.8866 39.9219 33.2657 39.9219 32.5672V25.194C39.9219 24.5731 39.6094 23.9522 38.9844 23.5642L32.6562 19.9164Z" fill="white"/>
</g>
<defs>
<clipPath id="clip0_41_1017">
<rect width="30" height="26" fill="white" transform="translate(10 12)"/>
</clipPath>
</defs>
</svg>
