<svg width="175" height="42" viewBox="0 0 175 42" fill="none" xmlns="http://www.w3.org/2000/svg">
<path d="M0.796737 12.9199C0.796737 9.74845 1.66989 7.13904 3.41618 5.09165C5.16248 3.04427 7.53102 2.02058 10.5218 2.02058C13.1714 2.02058 15.3191 2.78333 16.965 4.30883C18.6311 5.81426 19.6246 7.88172 19.9458 10.5112H17.9586C17.7178 8.34338 16.955 6.66734 15.6704 5.48307C14.4058 4.29879 12.6896 3.70666 10.5218 3.70666C8.01276 3.70666 6.09585 4.55974 4.77107 6.26589C3.44629 7.95197 2.7839 10.17 2.7839 12.9199C2.7839 15.6899 3.44629 17.9279 4.77107 19.6341C6.09585 21.3202 8.01276 22.1632 10.5218 22.1632C12.6896 22.1632 14.4058 21.5711 15.6704 20.3868C16.955 19.1825 17.7178 17.4964 17.9586 15.3286H19.9458C19.6246 17.9781 18.6311 20.0657 16.965 21.5912C15.3191 23.0966 13.1714 23.8493 10.5218 23.8493C7.53102 23.8493 5.16248 22.8256 3.41618 20.7782C1.66989 18.7308 0.796737 16.1114 0.796737 12.9199ZM22.3559 19.3932C22.3559 18.1889 22.7373 17.2154 23.5 16.4727C24.2628 15.7099 25.437 15.2583 27.0227 15.1178L33.2251 14.5458C33.0444 11.5349 31.5591 10.0295 28.769 10.0295C27.5045 10.0295 26.4507 10.3607 25.6076 11.023C24.7646 11.6654 24.3431 12.7091 24.3431 14.1543H22.3559C22.3559 12.5686 22.9179 11.2037 24.042 10.0596C25.1861 8.91545 26.7618 8.34338 28.769 8.34338C30.7963 8.34338 32.372 8.97566 33.4961 10.2402C34.6402 11.4847 35.2123 13.0905 35.2123 15.0576V21.8621H37.4102V23.5482H34.8811C33.7771 23.5482 33.2251 22.9962 33.2251 21.8922V20.989L33.5262 19.4836H32.924C32.6028 20.7481 31.9806 21.7919 31.0573 22.6149C30.1339 23.4378 28.8593 23.8493 27.2335 23.8493C26.2299 23.8493 25.3768 23.6988 24.6743 23.3977C23.9918 23.0966 23.49 22.6951 23.1688 22.1933C22.8677 21.6915 22.657 21.2198 22.5365 20.7782C22.4161 20.3366 22.3559 19.875 22.3559 19.3932ZM24.3431 19.2126C24.3431 20.156 24.614 20.8886 25.156 21.4105C25.6979 21.9123 26.4507 22.1632 27.4141 22.1632C29.1604 22.1632 30.5655 21.6012 31.6293 20.4771C32.6932 19.3531 33.2251 17.938 33.2251 16.2318L27.3238 16.8039C26.3001 16.9043 25.5474 17.1351 25.0657 17.4964C24.5839 17.8577 24.3431 18.4298 24.3431 19.2126ZM38.9166 23.5482V21.8621H43.1017V2.8034L40.1209 3.10449V1.41841L43.1318 1.11732C43.7941 1.03703 44.2859 1.1675 44.6071 1.50873C44.9282 1.84996 45.0888 2.37185 45.0888 3.07438V21.8621H49.2739V23.5482H38.9166ZM57.5472 5.48307C57.1457 5.88451 56.664 6.08524 56.102 6.08524C55.5399 6.08524 55.0582 5.88451 54.6568 5.48307C54.2754 5.08162 54.0847 4.59988 54.0847 4.03785C54.0847 3.4959 54.2754 3.0242 54.6568 2.62275C55.0582 2.2213 55.5399 2.02058 56.102 2.02058C56.664 2.02058 57.1457 2.2213 57.5472 2.62275C57.9486 3.0242 58.1494 3.4959 58.1494 4.03785C58.1494 4.59988 57.9486 5.08162 57.5472 5.48307ZM51.3749 23.5482V21.8621H55.56V10.0295L52.5793 10.3305V8.64447L55.5901 8.34338C56.8145 8.24302 57.4267 8.79501 57.4267 9.99935V21.8621H61.6118V23.5482H51.3749ZM71.3562 3.10449C70.3727 3.10449 69.6902 3.33532 69.3088 3.79699C68.9475 4.25865 68.7669 5.00133 68.7669 6.02502V8.64447H73.1025V10.3305H68.7669V21.8621H73.1025V23.5482H63.4075V21.8621H66.7797V10.3305H63.4075V8.64447H66.7797V5.99491C66.7797 2.94391 68.3052 1.41841 71.3562 1.41841H73.9455V3.10449H71.3562ZM75.1602 16.0813C75.1602 13.9335 75.8728 12.107 77.2979 10.6015C78.7231 9.0961 80.5999 8.34338 82.9283 8.34338C85.2366 8.34338 87.1033 9.0961 88.5285 10.6015C89.9536 12.107 90.6662 13.9335 90.6662 16.0813C90.6662 18.2491 89.9536 20.0857 88.5285 21.5912C87.1033 23.0966 85.2366 23.8493 82.9283 23.8493C80.5999 23.8493 78.7231 23.0966 77.2979 21.5912C75.8728 20.0857 75.1602 18.2491 75.1602 16.0813ZM77.1474 16.0813C77.1474 17.8075 77.6492 19.2527 78.6528 20.4169C79.6765 21.5811 81.1017 22.1632 82.9283 22.1632C84.7348 22.1632 86.1398 21.5811 87.1435 20.4169C88.1671 19.2327 88.679 17.7874 88.679 16.0813C88.679 14.3751 88.1671 12.94 87.1435 11.7758C86.1398 10.6116 84.7348 10.0295 82.9283 10.0295C81.1217 10.0295 79.7066 10.6116 78.6829 11.7758C77.6593 12.94 77.1474 14.3751 77.1474 16.0813ZM93.6827 23.5482V10.3004C93.6827 8.93552 94.335 8.28316 95.6397 8.34338L103.618 8.64447V10.3305L95.6698 10.0295V23.5482H93.6827ZM113.604 10.0295C111.958 10.0295 110.613 10.6517 109.569 11.8962C108.525 13.1206 108.004 14.7264 108.004 16.7136V23.5482H106.016V8.64447H108.004V11.3843L107.702 12.8898H108.305C108.626 11.4847 109.268 10.3807 110.232 9.57783C111.215 8.75487 112.49 8.34338 114.055 8.34338C115.762 8.34338 117.096 8.83516 118.06 9.8187C119.023 10.7822 119.505 12.2475 119.505 14.2146V23.5482H117.518V14.4554C117.518 12.8898 117.197 11.7657 116.554 11.0833C115.932 10.3807 114.949 10.0295 113.604 10.0295ZM128.389 5.48307C127.988 5.88451 127.506 6.08524 126.944 6.08524C126.382 6.08524 125.9 5.88451 125.499 5.48307C125.118 5.08162 124.927 4.59988 124.927 4.03785C124.927 3.4959 125.118 3.0242 125.499 2.62275C125.9 2.2213 126.382 2.02058 126.944 2.02058C127.506 2.02058 127.988 2.2213 128.389 2.62275C128.791 3.0242 128.992 3.4959 128.992 4.03785C128.992 4.59988 128.791 5.08162 128.389 5.48307ZM122.217 23.5482V21.8621H126.402V10.0295L123.421 10.3305V8.64447L126.432 8.34338C127.657 8.24302 128.269 8.79501 128.269 9.99935V21.8621H132.454V23.5482H122.217ZM140.753 22.1632C142.399 22.1632 143.744 21.551 144.788 20.3266C145.832 19.0821 146.353 17.4663 146.353 15.4791V8.64447H148.341V23.5482H146.353V20.8083L146.654 19.3029H146.052C145.731 20.708 145.079 21.822 144.095 22.645C143.132 23.4479 141.867 23.8493 140.302 23.8493C138.595 23.8493 137.261 23.3676 136.297 22.4041C135.334 21.4205 134.852 19.9452 134.852 17.9781V8.64447H136.839V17.7373C136.839 19.3029 137.15 20.437 137.772 21.1395C138.415 21.822 139.408 22.1632 140.753 22.1632ZM169.991 8.34338C171.436 8.34338 172.55 8.84519 173.333 9.84881C174.136 10.8524 174.537 12.1772 174.537 13.8231V23.5482H172.55V14.4554C172.55 12.9299 172.309 11.8159 171.828 11.1134C171.366 10.3908 170.523 10.0295 169.298 10.0295C167.773 10.0295 166.549 10.6517 165.625 11.8962C164.702 13.1206 164.24 14.7264 164.24 16.7136V23.5482H162.253V14.4554C162.253 12.9299 162.012 11.8159 161.53 11.1134C161.069 10.3908 160.226 10.0295 159.001 10.0295C157.476 10.0295 156.251 10.6517 155.328 11.8962C154.405 13.1206 153.943 14.7264 153.943 16.7136V23.5482H151.956V8.64447H153.943V11.3843L153.642 12.8898H154.244C154.927 9.85885 156.743 8.34338 159.694 8.34338C160.999 8.34338 162.032 8.75487 162.795 9.57783C163.578 10.4008 164.04 11.5048 164.18 12.8898H164.541C165.224 9.85885 167.04 8.34338 169.991 8.34338Z" fill="white"/>
<path d="M2.03545 34.0401C3.05617 34.0401 3.8235 34.2186 4.33743 34.5755C4.85136 34.9324 5.10832 35.5641 5.10832 36.4706C5.10832 37.3771 4.85136 38.0124 4.33743 38.3764C3.8235 38.7333 3.05617 38.9118 2.03545 38.9118H0.750618V41.5885H0.0439635V34.0401H2.03545ZM2.03545 38.3122C2.40662 38.3122 2.72069 38.2908 2.97765 38.248C3.23462 38.198 3.47731 38.1123 3.70572 37.991C3.94127 37.8625 4.11615 37.6733 4.23036 37.4235C4.34456 37.1737 4.40167 36.8561 4.40167 36.4706C4.40167 35.7497 4.19824 35.2643 3.79137 35.0145C3.39165 34.7646 2.80634 34.6397 2.03545 34.6397H0.750618V38.3122H2.03545ZM8.02269 37.809C8.02269 36.6812 8.33319 35.7532 8.95419 35.0252C9.57519 34.2971 10.4175 33.9331 11.481 33.9331C12.5446 33.9331 13.3833 34.2971 13.9971 35.0252C14.6181 35.7532 14.9286 36.6812 14.9286 37.809C14.9286 38.9439 14.6181 39.8754 13.9971 40.6035C13.3833 41.3315 12.5446 41.6956 11.481 41.6956C10.4175 41.6956 9.57519 41.3315 8.95419 40.6035C8.33319 39.8754 8.02269 38.9439 8.02269 37.809ZM8.72934 37.809C8.72934 38.794 8.96489 39.5899 9.436 40.1966C9.9071 40.7962 10.5888 41.096 11.481 41.096C12.3733 41.096 13.0514 40.7962 13.5153 40.1966C13.9864 39.5899 14.222 38.794 14.222 37.809C14.222 36.8311 13.9864 36.0423 13.5153 35.4427C13.0514 34.836 12.3733 34.5327 11.481 34.5327C10.5888 34.5327 9.9071 34.836 9.436 35.4427C8.96489 36.0423 8.72934 36.8311 8.72934 37.809ZM17.523 34.0401H18.1868L19.8035 41.3744H20.0177L21.6772 34.0401H23.112L24.7715 41.3744H24.9857L26.6024 34.0401H27.2662L25.596 41.5885H24.1612L22.5017 34.2543H22.2875L20.628 41.5885H19.1932L17.523 34.0401ZM30.188 41.5885V34.0401H34.7171V34.6397H30.8947V37.5092H34.1817V38.1088H30.8947V40.9889H34.7171V41.5885H30.188ZM37.9497 41.5885V34.0401H40.3695C41.3402 34.0401 42.0576 34.1936 42.5215 34.5005C42.9926 34.8003 43.2282 35.35 43.2282 36.1494C43.2282 37.1844 42.7928 37.784 41.922 37.9482V38.1623H42.7892C42.9819 38.1623 43.1176 38.2016 43.1961 38.2801C43.2817 38.3586 43.3246 38.4871 43.3246 38.6655V41.5885H42.6179V38.4835H38.6564V41.5885H37.9497ZM38.6564 37.8839H40.3695C40.7478 37.8839 41.0511 37.8696 41.2795 37.8411C41.508 37.8054 41.7257 37.734 41.9327 37.627C42.1397 37.5199 42.2896 37.3557 42.3824 37.1344C42.4751 36.906 42.5215 36.6134 42.5215 36.2565C42.5215 35.9638 42.4859 35.7176 42.4145 35.5177C42.3502 35.3178 42.2646 35.1608 42.1575 35.0466C42.0504 34.9324 41.897 34.8467 41.6971 34.7896C41.5044 34.7254 41.3081 34.6861 41.1082 34.6719C40.9155 34.6504 40.6692 34.6397 40.3695 34.6397H38.6564V37.8839ZM46.7779 41.5885V34.0401H51.3069V34.6397H47.4845V37.5092H50.7715V38.1088H47.4845V40.9889H51.3069V41.5885H46.7779ZM56.8522 34.0401C57.1806 34.0401 57.4803 34.0616 57.7516 34.1044C58.03 34.1401 58.3155 34.2043 58.6081 34.2971C58.9079 34.3899 59.1685 34.5291 59.3897 34.7147C59.611 34.8931 59.8144 35.118 60 35.3892C60.1856 35.6533 60.3248 35.9924 60.4176 36.4064C60.5175 36.8204 60.5675 37.2879 60.5675 37.809C60.5675 38.4371 60.4926 38.9832 60.3427 39.4471C60.1999 39.9111 60.0143 40.2787 59.7859 40.5499C59.5575 40.814 59.272 41.0282 58.9293 41.1923C58.5867 41.3565 58.2548 41.4636 57.9336 41.5136C57.6124 41.5635 57.2519 41.5885 56.8522 41.5885H54.5395V34.0401H56.8522ZM56.8522 40.9889C57.1734 40.9889 57.4518 40.9746 57.6873 40.9461C57.9229 40.9104 58.187 40.8319 58.4797 40.7105C58.7723 40.5821 59.0114 40.4107 59.197 40.1966C59.3826 39.9753 59.5396 39.6648 59.6681 39.2651C59.7966 38.8582 59.8608 38.3729 59.8608 37.809C59.8608 37.2522 59.7966 36.7704 59.6681 36.3635C59.5396 35.9567 59.3826 35.6462 59.197 35.432C59.0114 35.2179 58.7723 35.0502 58.4797 34.9288C58.187 34.8003 57.9229 34.7218 57.6873 34.6933C57.4518 34.6576 57.1734 34.6397 56.8522 34.6397H55.2462V40.9889H56.8522ZM74.9027 41.5885L73.8962 38.5263H70.8769L69.8705 41.5885H69.1745L71.6585 34.0401H73.1146L75.5986 41.5885H74.9027ZM71.0696 37.9267H73.7035L72.4936 34.2543H72.2795L71.0696 37.9267ZM82.6853 34.6397H81.0043V40.9889H82.6853V41.5885H78.6166V40.9889H80.2976V34.6397H78.6166V34.0401H82.6853V34.6397Z" fill="url(#paint0_radial_0_1)"/>
<defs>
<radialGradient id="paint0_radial_0_1" cx="0" cy="0" r="1" gradientUnits="userSpaceOnUse" gradientTransform="translate(33.7191 39.0885) rotate(67.043) scale(19.4608 101.675)">
<stop stop-color="#273DFF"/>
<stop offset="1" stop-color="white"/>
</radialGradient>
</defs>
</svg>
